<svg xmlns="http://www.w3.org/2000/svg" width="687" height="271.5" viewBox="0 0 1374 543">
  <defs>
    <style>
      .cls-1 {
        fill: #017197;
        fill-rule: evenodd;
      }
    </style>
  </defs>
  <path id="Actie" class="cls-1" d="M650.457,203.62l12.4,37.38H699.6L650.418,100.587h-44.5L558.945,241h34.94l11.16-37.38h45.412Zm-40.228-24.478,9.485-29.955c2.512-8.169,4.639-17.541,6.887-25.445h0.416c2.412,7.86,5.109,17.188,7.873,25.412l10.1,29.988H610.229ZM794.2,214.119a55.638,55.638,0,0,1-20.952,3.709c-16.215,0-30.365-9.449-30.365-28.261-0.164-16.324,11.606-28.021,29.568-28.021,9.63,0,15.916,1.69,20.27,3.709l5.393-24.27c-7.945-2.916-18.253-4.454-27.294-4.454-41.119,0-62.131,25.225-62.131,54.45,0,31.586,22.355,52.519,57.679,52.519,13.469,0,25.388-2.251,32.063-5.32ZM825.477,116.8v22.23H811.416v24.718h14.061v39.542c0,13.975,2.817,24.291,8.8,30.573,5.153,5.493,14.239,9.636,25.278,9.636,9.459,0,17.624-1.414,21.823-3.037l-0.264-25a42.321,42.321,0,0,1-10.167,1.054c-10.813,0-13.249-6.582-13.249-19.038V163.749h23.78V139.031H857.7V109.4ZM934.933,241V139.031H901.724V241h33.209Zm-16.5-146.917c-11.035,0-17.742,7.168-17.742,16.187,0,8.855,6.619,16.187,17.49,16.187,11.331,0,17.95-7.332,17.95-16.187C935.966,101.207,929.468,94.083,918.433,94.083ZM1058.58,200.366a54.876,54.876,0,0,0,1.24-12c0-23.355-12.37-51.835-49.13-51.835-39.338,0-54.926,31.392-54.926,54.506,0,31.75,21.358,52.463,58.146,52.463,14.8,0,28.19-2.251,39.94-7.039l-4.51-22.09c-9.75,3.245-19.23,4.607-30.93,4.607-15.7,0-29.974-6.368-31.124-18.612h71.294Zm-71.654-22.583c1.1-7.814,7.122-19.776,22.024-19.776,16.53,0,19.92,13.96,19.87,19.776H986.926Z"/>
  <path id="MIN" class="cls-1" d="M1008.76,440h33l-7.21-140.413H988.786l-16.193,45.347c-5.124,14.927-10.42,34.351-14.827,50.826h-0.745c-3.346-16.651-7.941-35.013-12.559-50.541l-14.527-45.632H883.11L874.489,440h31.357l2.7-54.8c0.889-18.689,1.6-41.685,2.392-62.042h0.416c3.926,19.6,8.906,40.374,14.041,58.634L941.682,437.7H968.12l18.863-56.293c6.165-18.456,12.787-39.306,17.917-58.249h0.58c0,22.393.56,43.4,1.2,61.6Zm59.13-140.413V440h33.21V299.587h-33.21ZM1160.83,440V394.246c0-21.162-.21-40.433-1.25-60.537l0.79-.088c7.99,17.757,18.17,35.834,27.74,52.083l33.04,54.3h35.99V299.587h-30.87v44.24c0,19.694.21,36.689,2.49,56.553l-0.58.088A374.815,374.815,0,0,0,1202.6,349.9l-31.67-50.312h-40.96V440h30.86Z"/>
  <path id="Kleurenvulling_1" data-name="Kleurenvulling 1" class="cls-1" d="M280,490c0.032,8.109,1.279,31.736-2,36-1.69,1.142-4.9,1.066-8,1,2.72-22.634,3.951-65.845-2-83-3.938-1.629-15.911-.4-20-3-2.067-3.151-1.13-12.069-1-17h-2c-2.526,4.029-5.769,6.574-12,7-9.837-9.52-47.029,4.742-56,8-31.209,11.333-61.547,19.839-87,37-10.466,7.056-36.135,30.928-49,32-2.512-3.746-3.975-4.065-4-11,12.657-4.058,23.506-16.966,34-24,4.5-3.015,9.208-3.207,14-6l3-4c8.254-5.5,17.539-7.833,27-12,5.99-2.638,12.982-7.434,19-10,15.509-6.614,32.3-10.966,48-16,7.255-2.326,16.657-.845,22-5,0.8-1.021.355-.274,1-2-4.152-2.6-8.322-3.156-16-3-8.123,5.348-38.541,6.3-50,10-18.407,5.95-38.295,9.189-57,16-13.624,4.961-28.275,14.963-45,16V444c11.573-1.3,29.04-9.382,39-14l14-3c15.673-5.182,34.414-10.086,50-15,12.331-3.888,44.587-2.143,53-8,0.8-1.021.355-.274,1-2,3.59-5.565,3.1-16.425,3-25-15.37-4.341-28.733-19.734-39-30-31.7-31.7-54.375-62.2-52-129q2-12,4-24c16.326-48.214,53.519-86.9,99-106,13.353-5.608,24.693-6.359,40-11,19.828-6.012,58.061-7.671,81-2,52.009,12.858,90.661,37.583,115,78,3.792,6.3,3.89,12.794,7,20,6.63,15.364,14.311,41.057,9,65-2.5,11.284-3.722,20.694-7,32a164.453,164.453,0,0,1-19,41c-12.388,19.022-31.127,39.458-50,52-6.891,4.58-26.842,12.307-28,21,1.41,2.215,1.517,9.329,2,12,3.6,1.92,8.8,2.12,15,2,3.364,1.943,9.377-.244,14,1,15.838,4.262,33.918,3.842,51,8,34.183,8.32,68.907,15.716,99,28,10.359,4.228,38.909,6.569,41,17l-6,5c-16.706.169-35.88-11.244-50-16-18.032-6.074-36.431-10.169-54-16-12.785-4.244-24.661-2.581-38-6-11.923-3.056-24.329-5.648-39-6v1h1v1c9.355,3.758,20.039,3.707,30,7,27.251,9.009,53.26,18.2,76,31,9.807,5.519,19.283,7.782,27,15-0.631,1.754-.193.971-1,2-1.979,3.12-2.823,3.84-8,4-7.968-7.327-19.224-9.287-29-15-21.739-12.7-48.032-19.719-74-29-8.286-2.961-15.872-1.467-25-4-9.951-2.762-24.962-6.23-37-4-1.677,9.494-6.038,15.419-18,15-2.147-1.7-5.528-1.4-8-3-7.061-4.557-5.694-7.855-19-8-1.573,4.611-1.076,12.8-1,19,3.235,5.118,2.1,28.411,2,37C299.162,486.608,295.205,490.052,280,490ZM276,88c-9.148,5.916-27.121,2.325-37,7-32.678,15.463-67.378,28.581-88,56l-6,5q-1,4-2,8c-10.265,17.653-19.242,31.657-25,55q-0.5,13-1,26c-6.139,41.275,25.262,86.074,48,103,8.938,6.653,19.042,20.247,33,21a2.834,2.834,0,0,1,1-1c1.323-18.852,6.766-37.658,7-59,1.619-1.009,3.31-3.4,5-4h10l3-11,4-2c2.248-2.209,2.131-5.266,4-8l9-8V266c1.059-3.768,4.747-7.612,6-11,1.357-3.668.114-9.009,2-12,2.477-1.644,8.9-1.123,13-1,4.536,7.82,6.656,11.434,20,11a13.207,13.207,0,0,0,6,4c2.283-3.164,4.56-4.79,10-5,2.493,2.4,6.141,2.879,9,5,6.27,4.653,8.057,14.715,17,17,3.818,0.975,5.281-1.531,7-2l11,1,1,3c3.892,6.3-3.3,9.411-2,15,1.909,8.2,5.521,5.781,5,18,2.046,0.988,5.754,1.929,7,4,2.337,2.724,3.855,42.279,4,50,2.091,1.121,1.832,1.434,5,2,6.315-5.86,15.782-8.049,23-13,7.079-4.856,14.731-13.153,20-20l13-11c13.654-18.093,27.293-38.049,35-62,4.037-12.545,1.567-51.188-2-62-2.169-6.573-6.423-14.1-9-20C416.533,118.655,359.042,88.551,276,88Z"/>
</svg>
