<?xml version="1.0" encoding="utf-8"?>
<!-- Generator: Adobe Illustrator 22.1.0, SVG Export Plug-In . SVG Version: 6.00 Build 0)  -->
<svg version="1.1" id="Layer_1" xmlns="http://www.w3.org/2000/svg" xmlns:xlink="http://www.w3.org/1999/xlink" x="0px" y="0px"
	 viewBox="0 0 200 125" style="enable-background:new 0 0 200 125;" xml:space="preserve">
<style type="text/css">
	.st0{opacity:0.9;}
	.st1{fill:#93C01F;}
	.st2{fill:#008CA7;}
	.st3{fill:#333333;}
</style>
<g>
	<g>
		<g class="st0">
			<g>
				<path class="st1" d="M59.6,71.2C58,78.2,53,83,48.3,82c-4.6-1-7.1-7.5-5.5-14.5c1.6-7,6.6-11.8,11.2-10.8
					C58.6,57.8,61.1,64.3,59.6,71.2"/>
			</g>
		</g>
		<g class="st0">
			<g>
				<path class="st2" d="M36.7,58.6c-9.8-5.4-15.5-13.9-12.7-19c2.8-5,13-4.7,22.8,0.7c9.8,5.4,15.5,13.9,12.7,19
					C56.7,64.4,46.5,64.1,36.7,58.6"/>
			</g>
		</g>
	</g>
</g>
<g>
	<path class="st3" d="M85.8,64.2c2,0.9,3.8,2.1,5.3,3.6c1.5,1.5,2.7,3.3,3.6,5.3c0.9,2,1.3,4.2,1.3,6.5c0,2.3-0.4,4.5-1.3,6.5
		c-0.9,2-2.1,3.8-3.6,5.4c-1.5,1.5-3.3,2.8-5.3,3.6c-2,0.9-4.2,1.3-6.5,1.3c-2.3,0-4.5-0.4-6.5-1.3c-2-0.9-3.8-2.1-5.4-3.6
		c-1.5-1.5-2.8-3.3-3.6-5.4c-0.9-2-1.3-4.2-1.3-6.5V49.5h6.6v13.4h10.2C81.6,62.9,83.8,63.4,85.8,64.2z M79.2,89.8
		c1.4,0,2.7-0.3,3.9-0.8c1.2-0.5,2.3-1.2,3.2-2.2c0.9-0.9,1.6-2,2.2-3.2c0.5-1.2,0.8-2.6,0.8-4c0-1.4-0.3-2.7-0.8-3.9
		c-0.5-1.2-1.2-2.3-2.2-3.2c-0.9-0.9-2-1.6-3.2-2.2c-1.2-0.5-2.5-0.8-3.9-0.8H69.1v10.1c0,1.4,0.3,2.7,0.8,4
		c0.5,1.2,1.2,2.3,2.2,3.2c0.9,0.9,2,1.6,3.2,2.2C76.5,89.5,77.9,89.8,79.2,89.8z"/>
	<path class="st3" d="M102.9,67.7c1.6-1.6,3.5-2.9,5.6-3.7c2.1-0.8,4.2-1.2,6.3-1.2c2.1,0,4.2,0.4,6.3,1.2c2.1,0.8,3.9,2.1,5.6,3.7
		L129,70l-4.6,4.7l-2.4-2.3c-1-1-2.1-1.7-3.4-2.2c-1.2-0.5-2.5-0.7-3.8-0.7c-1.3,0-2.6,0.2-3.8,0.7c-1.2,0.5-2.4,1.2-3.4,2.2
		c-1,0.9-1.7,2-2.2,3.3c-0.5,1.2-0.7,2.5-0.7,3.8c0,1.3,0.2,2.6,0.7,3.8c0.5,1.2,1.2,2.4,2.2,3.4c2,2,4.4,3,7.2,3
		c1.3,0,2.6-0.2,3.9-0.7c1.2-0.5,2.3-1.2,3.3-2.2l2.4-2.3L129,89l-2.3,2.3c-1.6,1.6-3.5,2.9-5.6,3.7c-2.1,0.8-4.2,1.2-6.3,1.2
		c-2.1,0-4.2-0.4-6.3-1.2c-2.1-0.8-3.9-2.1-5.6-3.7c-1.6-1.6-2.9-3.5-3.7-5.5c-0.8-2-1.2-4.1-1.2-6.3c0-2.2,0.4-4.3,1.2-6.3
		C100,71.2,101.3,69.3,102.9,67.7z"/>
	<path class="st3" d="M161.7,62.8l-6.6,6.6h-13.7c-0.9,0-1.7,0.3-2.4,1c-0.6,0.6-1,1.4-1,2.4c0,0.9,0.3,1.8,1,2.4
		c0.6,0.7,1.4,1,2.4,1h13.4c1.4,0,2.7,0.3,3.9,0.8c1.2,0.5,2.3,1.2,3.2,2.1c0.9,0.9,1.6,2,2.2,3.2c0.5,1.2,0.8,2.5,0.8,3.9
		c0,1.4-0.3,2.7-0.8,3.9c-0.5,1.2-1.2,2.3-2.2,3.2c-0.9,0.9-2,1.6-3.2,2.2c-1.2,0.5-2.5,0.8-3.9,0.8h-13.6l-6.6-6.6h20.2
		c1,0,1.8-0.3,2.5-1c0.6-0.6,1-1.5,1-2.5c0-0.9-0.3-1.7-1-2.4c-0.6-0.6-1.5-1-2.5-1h-13.4c-1.4,0-2.7-0.3-3.9-0.8
		c-1.2-0.5-2.3-1.2-3.2-2.2c-0.9-0.9-1.6-2-2.1-3.2c-0.5-1.2-0.8-2.5-0.8-3.9c0-1.4,0.3-2.7,0.8-3.9c0.5-1.2,1.2-2.3,2.1-3.2
		c0.9-0.9,2-1.6,3.2-2.1c1.2-0.5,2.5-0.8,3.9-0.8H161.7z"/>
</g>
<polygon class="st2" points="156.6,69.4 161.7,64.4 161.7,69.4 "/>
<polygon class="st1" points="134.8,91.2 139.8,96.3 134.8,96.3 "/>
<polygon class="st2" points="62.4,39.3 62.4,46.5 58.8,42.9 "/>
</svg>
