<?xml version="1.0" encoding="utf-8"?>
<!-- Generator: Adobe Illustrator 22.0.1, SVG Export Plug-In . SVG Version: 6.00 Build 0)  -->
<svg version="1.1" id="Layer_1" xmlns="http://www.w3.org/2000/svg" xmlns:xlink="http://www.w3.org/1999/xlink" x="0px" y="0px"
	 viewBox="0 0 443.6 228.8" style="enable-background:new 0 0 443.6 228.8;" xml:space="preserve">
<style type="text/css">
	.st0{fill:#3E3D40;}
	.st1{fill:#414794;}
	.st2{fill:#306BAF;}
	.st3{fill:#57B431;}
</style>
<g>
	<g>
		<path class="st0" d="M6.8,209.3c0-1.8,1.1-2.4,2.3-2.3l5.7,0.3v1H9c-0.9,0-0.9,0.5-0.9,1v3.6l5.9,0.2v1.1l-5.9,0.2v3.6
			c0,1,0.6,0.9,1.1,0.9h5.5v1l-5.5,0.3c-1.2,0.1-2.4-0.2-2.4-2.3C6.8,217.9,6.8,209.3,6.8,209.3z"/>
		<polygon class="st0" points="24,207 25.4,207 32.4,217.6 32.4,207 33.7,207 33.7,220.1 32.4,220.1 25.4,209.4 25.4,220.1 
			24,220.1 		"/>
		<polygon class="st0" points="43.3,207 44.7,207 44.7,213.1 50.9,213.1 50.9,207 52.3,207 52.3,220.1 50.9,220.1 50.9,214.4 
			44.7,214.4 44.7,220.1 43.3,220.1 		"/>
		<path class="st0" d="M66.1,207h1.3l4.6,13.1h-1.6l-1.1-3.7H64l-1.2,3.7h-1.6L66.1,207z M68.8,215.1l-2.1-6.1l-2.2,6.1H68.8z"/>
		<polygon class="st0" points="81,207 82.3,207 89.3,217.6 89.3,207 90.6,207 90.6,220.1 89.3,220.1 82.3,209.4 82.3,220.1 
			81,220.1 		"/>
		<path class="st0" d="M104.2,206.8c0.9,0,3.1,0.2,4.4,0.4v1.1c0,0-2.7-0.2-4.4-0.2c-2.2,0-3,1-3,5.4c0,2.9,0.7,5.3,3,5.3
			c1.9,0,4.4-0.1,4.4-0.1v1.1c-1.3,0.2-3.4,0.4-4.4,0.4c-3.3,0-4.4-2.8-4.4-6.7C99.8,209.3,100.6,206.8,104.2,206.8"/>
		<path class="st0" d="M117.7,209.3c0-1.8,1.1-2.4,2.3-2.3l5.7,0.3v1H120c-0.9,0-0.9,0.5-0.9,1v3.6l5.9,0.2v1.1l-5.9,0.2v3.6
			c0,1,0.6,0.9,1.1,0.9h5.5v1l-5.5,0.3c-1.2,0.1-2.4-0.2-2.4-2.3L117.7,209.3L117.7,209.3z"/>
		<polygon class="st0" points="147.3,207 150.7,213.8 154.5,207 155.9,207 151.4,215.4 151.4,220.1 150.1,220.1 150.1,215.4 
			145.9,207 		"/>
		<path class="st0" d="M168.7,206.9c3.1,0,5.1,0.6,5.1,6.7c0,5.8-1.8,6.5-5.1,6.5c-3.2,0-5.1-0.6-5.1-6.5
			C163.7,207.5,165.7,206.9,168.7,206.9 M168.7,218.8c2.8,0,3.7-0.8,3.7-5.2c0-5.4-1.3-5.4-3.7-5.4s-3.8,0.1-3.8,5.4
			C165,218.2,165.9,218.8,168.7,218.8"/>
		<path class="st0" d="M183.1,207h1.3v7.4c0,4.6,1.4,4.5,3.5,4.5c1.8,0,3.4,0,3.4-4.5V207h1.3v7.4c0,5.8-2.6,5.8-4.8,5.8
			c-2.4,0-4.9,0.1-4.9-5.8V207H183.1z"/>
		<path class="st0" d="M202,207h5.6c1.7,0,3,1,3,3.9c0,3.4-1.8,3.7-2.3,3.8l2.8,5.4h-1.4l-2.8-5.4l-3.6-0.3v5.6H202V207z
			 M207.6,213.3c0.8,0,1.7,0,1.7-2.4s-0.9-2.6-1.7-2.6h-4.3v5H207.6z"/>
		<path class="st0" d="M231.4,210c0-2.6,1.5-3.2,3.6-3.2c1,0,3.8,0.3,4.5,0.4v1.1c-1.1-0.1-4.5-0.2-4.5-0.2
			c-1.3-0.1-2.2,0.1-2.2,1.9v1.2c0,1.6,0.8,1.8,1.8,1.8h2.5c2.4,0,2.8,1.6,2.8,3.1v1.2c0,2.5-1.8,2.9-3.6,2.9
			c-0.9,0-3.7-0.3-4.5-0.4v-1.1c0.7,0.1,2.8,0.2,4.5,0.2c0.7,0,2.3,0,2.3-1.6v-1.2c0-1-0.3-1.8-1.5-1.8h-2.5c-2.9,0-3.2-1.6-3.2-3.1
			L231.4,210L231.4,210z"/>
		<path class="st0" d="M254,206.9c3.1,0,5.1,0.6,5.1,6.7c0,5.8-1.8,6.5-5.1,6.5c-3.2,0-5.1-0.6-5.1-6.5
			C248.9,207.5,251,206.9,254,206.9 M254,218.8c2.8,0,3.7-0.8,3.7-5.2c0-5.4-1.3-5.4-3.7-5.4c-2.4,0-3.8,0.1-3.8,5.4
			C250.3,218.2,251.2,218.8,254,218.8"/>
		<path class="st0" d="M272,206.8c0.9,0,3.1,0.2,4.4,0.4v1.1c0,0-2.7-0.2-4.4-0.2c-2.2,0-3,1-3,5.4c0,2.9,0.7,5.3,3,5.3
			c1.9,0,4.4-0.1,4.4-0.1v1.1c-1.3,0.2-3.4,0.4-4.4,0.4c-3.3,0-4.4-2.8-4.4-6.7C267.6,209.3,268.4,206.8,272,206.8"/>
		<rect x="285.5" y="207" class="st0" width="1.3" height="13.1"/>
		<path class="st0" d="M300.6,207h1.3l4.6,13.1H305l-1.1-3.7h-5.2l-1.2,3.7h-1.6L300.6,207z M303.4,215.1l-2.1-6.1l-2.2,6.1H303.4z"
			/>
		<path class="st0" d="M315.6,207h1.3v10.9c0,1,0.6,0.9,1.1,0.9h5.5v1.3H318c-1.2,0-2.4-0.2-2.4-2.3V207z"/>
		<rect x="344.2" y="207" class="st0" width="1.3" height="13.1"/>
		<polygon class="st0" points="355.5,207 357.4,207 360.9,217.9 364.2,207 366.1,207 367.1,220.1 365.7,220.1 364.9,209.4 
			361.6,220.1 360.2,220.1 356.7,209.4 356,220.1 354.7,220.1 		"/>
		<path class="st0" d="M376.2,207h5.4c1.4,0,3.1,0.6,3.1,3.8c0,3.7-1.8,4-3.1,4c-0.7,0-4-0.3-4.1-0.4v5.7h-1.3V207z M381.6,213.4
			c0.9,0,1.8-0.3,1.8-2.7s-1.2-2.5-1.8-2.5h-4.1v5.1L381.6,213.4L381.6,213.4z"/>
		<path class="st0" d="M396.7,207h1.3l4.6,13.1H401l-1.1-3.7h-5.2l-1.2,3.7h-1.6L396.7,207z M399.4,215.1l-2.1-6.1l-2.2,6.1H399.4z"
			/>
		<path class="st0" d="M414.8,206.8c0.9,0,3.1,0.2,4.4,0.4v1.1c0,0-2.7-0.2-4.4-0.2c-2.2,0-3,1-3,5.4c0,2.9,0.7,5.3,3,5.3
			c1.9,0,4.4-0.1,4.4-0.1v1.1c-1.2,0.2-3.4,0.4-4.4,0.4c-3.3,0-4.4-2.8-4.4-6.7C410.4,209.3,411.2,206.8,414.8,206.8"/>
		<polygon class="st0" points="427.7,207 436.8,207 436.8,208.3 432.8,208.3 432.8,220.1 431.5,220.1 431.5,208.3 427.7,208.3 		"/>
	</g>
	<path class="st1" d="M329.2,187.7c-6,0-10.9-4.9-10.9-10.9s4.9-10.9,10.9-10.9s10.9,4.9,10.9,10.9
		C340,182.9,335.2,187.7,329.2,187.7 M329.2,167.4c-5.2,0-9.5,4.3-9.5,9.5s4.3,9.5,9.5,9.5s9.5-4.3,9.5-9.5
		C338.7,171.6,334.4,167.4,329.2,167.4"/>
	<path class="st2" d="M436.6,59.2L432.8,44l-19.3,3.7c0,0-4.8,1.4-6.1,1.9c-0.9,0.4-2.8,1.1-4,1.6c-0.2,0.2-0.4,0.3-0.5,0.4
		c-0.6,0.3-1.8,2.1-2.3,2.6c-0.6,0.5-5.2,4.7-5.5,5s-1.1,1.3-1.4,1.6s-1.3,1.2-2,1.8c-0.7,0.7-2.2,3.3-2.2,3.3s-4.5,7.2-4.8,7.6
		s-0.9,1.3-2.2,0.7c-1.2-0.7-0.7-2-0.7-2s1.6-3.2,2.2-4.2c0.5-1.1,0.7-2,1-2.8s2-3.1,2.2-3.5c0.1-0.4,0.2-1-0.3-1.4
		c-0.5-0.3-1,0.1-1,0.1l-5,4.8l-7.6,6.7c0,0-1.1,1.1-2.4-0.1s0.1-2.5,0.9-3.2c0.8-0.8,5.9-6.3,5.9-6.3s2.9-2.7,3.3-3.3
		s0.4-1.3,0.4-1.3l-0.2,0.1c0,0-14.9,9.9-15.3,10.2c-0.5,0.4-1.4,0.4-2.2-0.7c-0.8-1.1,0-2.3,0.6-3c0.6-0.7,5.3-4.5,7.1-5.9
		c1.8-1.4,6.4-4.4,7-4.8c0.6-0.4,0.6-0.9,0.3-1.5c-0.3-0.6-0.9-0.6-0.9-0.6s-5.7,1.6-6.8,1.9c-1.1,0.2-8.2,1.7-8.9,1.8
		c-0.7,0.1-1.4-0.1-1.7-0.9c-0.3-0.8,0.1-1.9,0.9-2.5s4.2-1.6,5-1.8s5.1-1.6,5.4-1.7c0.3-0.1,4-1.3,5.6-1.9c1.6-0.6,3-1.4,4.6-2.6
		c0.3-0.2,0.6-0.5,0.8-0.7c0.1-0.1,0.2-0.2,0.3-0.3c0.2-0.2,0.3-0.3,0.4-0.5c0.1-0.1,0.1-0.2,0.2-0.3c0.1-0.2,0.1-0.4,0.2-0.6
		c0-0.1,0.1-0.2,0.1-0.3c0-0.3,0-0.5-0.1-0.8s-0.3-0.5-0.6-0.7c-0.1-0.1-0.2-0.2-0.3-0.2c-0.2-0.2-0.5-0.3-0.8-0.5
		c-0.2-0.1-0.3-0.2-0.5-0.3c-0.3-0.2-0.7-0.4-1-0.5c-0.2-0.1-0.4-0.2-0.6-0.3c-0.4-0.2-0.8-0.4-1.2-0.6c-2.3-1.2-3.5-2.3-4.4-3.7
		c-0.2-0.3-0.3-0.6-0.4-1c-0.3-1,0-2,0.4-2.8c0.5-1.1,1.5-0.5,1.9-0.1s4.1,2.9,5.2,3.5c0.3,0.1,0.8,0.3,1.3,0.4c0.1,0,0.2,0,0.4,0.1
		c0.2,0,0.4,0.1,0.6,0.1c0.1,0,0.2,0,0.4,0.1c0.3,0,0.7,0.1,1,0.1c0.1,0,0.2,0,0.3,0c0.3,0,0.5,0.1,0.8,0.1s0.6,0.1,0.9,0.1
		c0.1,0,0.2,0,0.3,0c0.2,0,0.4,0,0.6,0.1c0.1,0,0.2,0,0.2,0c0.2,0,0.4,0.1,0.5,0.1c0.4,0.1,1.3,0.4,2.4,0.8c1.5,0.5,3.5,1.2,5.3,1.8
		c0.4,0.1,0.8,0.3,1.2,0.4c0.5,0.1,1.2,0,1.9,0.1l0,0c2.5,0.5,4.8-0.9,4.8-0.9l24.7-7.4L423.8,13c-0.7-3-3.7-4.7-6.5-4l-87.4,23
		c-2.9,0.8-4.6,3.8-3.8,6.7l13,46.5c0.7,3,3.7,4.7,6.5,4L432.8,66C435.6,65.2,437.4,62.2,436.6,59.2"/>
	<path class="st2" d="M405.5,112.1h-35.2c-1,0-1.8-0.8-1.8-1.8V94.2c0-1,0.8-1.8,1.8-1.8h35.2c1,0,1.8,0.8,1.8,1.8v16.2
		C407.4,111.2,406.6,112.1,405.5,112.1"/>
	<path class="st2" d="M394.1,156.9c-0.4-1.7-2.2-2.7-3.9-2.2L344.1,167L314.7,54.8c0,0,0,0,0-0.1c-0.3-0.9-0.9-2.5-2.4-3.9
		c-2.2-2-8-3.1-9.2-3.4c-1.2-0.3-1.3,0.9-1.3,0.9v3.9c0,0,0.2,1.3,1.5,1.6c3.9,0.8,5.3,2.9,5.7,4.1l14.9,56.7L308,112
		c-1.7-0.3-3.3,0.9-3.6,2.6c-0.3,1.7,0.9,3.3,2.6,3.6l17.2,2.9c0.2,0,0.4,0,0.5,0c0.3,0,0.6-0.1,0.8-0.1l11.8,44.7
		c-2.3-1.7-5.1-2.7-8.2-2.7c-7.7,0-13.9,6.2-13.9,13.9s6.2,13.9,13.9,13.9c7.7,0,13.9-6.2,13.9-13.9c0-1.1-0.1-2.1-0.4-3.1l0,0
		l39-10.4l2.7,8.1c0.6,1.7,2.1,2.8,3.9,2.8c0.4,0,0.8-0.1,1.3-0.2c2.1-0.7,3.3-3,2.6-5.1l-2.5-7.7l2.3-0.6
		C393.6,160.3,394.6,158.6,394.1,156.9 M329.2,183.4c-3.6,0-6.5-2.9-6.5-6.5s2.9-6.5,6.5-6.5s6.5,2.9,6.5,6.5
		S332.8,183.4,329.2,183.4"/>
	<g>
		<g>
			<path class="st3" d="M51.7,141.9H38.9v47.8c0,0.9-0.8,1.7-1.7,1.7h-14c-0.9,0-1.7-0.8-1.7-1.7v-47.8h-13c-0.9,0-1.7-0.7-1.7-1.6
				v-11c0-0.9,0.8-1.6,1.7-1.6h43.2c0.9,0,1.8,0.7,1.8,1.6v11C53.5,141.2,52.7,141.9,51.7,141.9"/>
			<path class="st3" d="M80.4,192.2c-14.2,0-26.3-7.3-26.3-28.2v-8.8c0-20.9,12.1-28.3,26.3-28.3s26.3,7.4,26.3,28.3v8.8
				C106.7,184.9,94.6,192.2,80.4,192.2 M89,155.1c0-9.2-2.7-12.9-8.7-12.9s-8.7,3.8-8.7,12.9v8.8c0,9.2,2.7,12.9,8.7,12.9
				s8.7-3.7,8.7-12.9V155.1z"/>
			<path class="st3" d="M169.9,190.1c-4.9,1-11.5,2.1-19.8,2.1c-10.3,0-25.9-4.9-25.9-28.1v-9c0-23.5,15.2-28.2,27.1-28.2
				c8.9,0,15.3,1.4,18.8,2.3c1.2,0.3,1.6,0.5,1.6,1.6v10.8c0,1.2-0.4,1.5-1.5,1.4c-3.3-0.3-10.2-0.8-16.5-0.8
				c-8.1,0-11.8,2.5-11.8,12.9v9.1c0,11.5,4.9,13.1,8.2,13.1c1.6,0,3.3-0.1,4.7-0.3v-17.6c0-0.9,0.7-1.7,1.6-1.7H170
				c0.9,0,1.7,0.8,1.7,1.7v28.7C171.7,189.4,171.3,189.9,169.9,190.1"/>
			<path class="st3" d="M194.3,191.4h-14.1c-0.9,0-1.7-0.8-1.7-1.7v-60.4c0-0.9,0.8-1.6,1.7-1.6h14.1c0.9,0,1.7,0.7,1.7,1.6v60.4
				C196.1,190.6,195.3,191.4,194.3,191.4"/>
			<path class="st3" d="M256.2,129.4l-11.5,52.5c-1.9,8.5-8.2,10.3-16.5,10.3c-8.2,0-14.6-1.8-16.5-10.3l-11.5-52.5
				c-0.2-0.9,0.1-1.7,1.4-1.7h14.8c1.2,0,1.6,0.8,1.8,1.6l9,47.4c0.2,0.8,0.3,1.2,0.9,1.2c0.7,0,0.9-0.4,1-1.2l9-47.4
				c0.2-0.9,0.8-1.6,1.7-1.6H255C256.2,127.7,256.4,128.5,256.2,129.4"/>
			<path class="st3" d="M297.8,191.2c-3.3,0.4-8.6,1-16.9,1c-11,0-22-2.6-22-19.2v-27c0-16.5,11-19.2,22-19.2c8.3,0,13.6,0.6,16.9,1
				c1.1,0.2,1.7,0.7,1.7,1.7V140c0,0.9-0.8,1.7-1.7,1.7h-17.3c-3.1,0-4.1,0.9-4.1,4.3v6.3h21.1c0.9,0,1.7,0.8,1.7,1.7v10.1
				c0,0.9-0.8,1.7-1.7,1.7h-21.1v7.1c0,3.3,1,4.3,4.1,4.3h17.3c0.9,0,1.7,0.8,1.7,1.7v10.5C299.5,190.5,298.9,191,297.8,191.2"/>
			<path class="st3" d="M58.3,113.9c-5.4,1.1-12.8,2.3-22.1,2.3c-11.5,0-28.9-5.4-28.9-31.1v-9.9c0-26,16.9-31.2,30.2-31.2
				c10,0,17,1.5,20.9,2.6c1.3,0.4,1.8,0.6,1.8,1.8v11.9c0,1.3-0.5,1.6-1.6,1.5c-3.6-0.3-11.4-0.9-18.5-0.9
				c-9.1,0-13.2,2.7-13.2,14.2v10c0,12.7,5.5,14.5,9.2,14.5c1.8,0,3.6-0.1,5.3-0.3V80c0-1,0.8-1.9,1.8-1.9h15.1
				c1.1,0,1.9,0.9,1.9,1.9v31.7C60.3,113.1,59.8,113.6,58.3,113.9"/>
			<path class="st3" d="M93.6,116.1c-15.9,0-29.4-8-29.4-31.2v-9.8C64.3,52.1,77.8,44,93.6,44c15.9,0,29.4,8.1,29.4,31.2V85
				C123,108.1,109.5,116.1,93.6,116.1 M103.3,75.2c0-10.1-3-14.3-9.7-14.3s-9.7,4.2-9.7,14.3V85c0,10.1,3,14.2,9.7,14.2
				s9.7-4.1,9.7-14.2V75.2z"/>
			<path class="st3" d="M157.4,116.1c-15.9,0-29.4-8-29.4-31.2v-9.8c0-23.1,13.5-31.2,29.4-31.2s29.4,8.1,29.4,31.2V85
				C186.8,108.1,173.3,116.1,157.4,116.1 M167.1,75.2c0-10.1-3-14.3-9.7-14.3s-9.7,4.2-9.7,14.3V85c0,10.1,3,14.2,9.7,14.2
				s9.7-4.1,9.7-14.2V75.2z"/>
			<path class="st3" d="M216.6,116.1c-9.1,0-16.9-0.8-21.9-1.6c-2.1-0.4-3.1-1.1-3.1-3.7V49.3c0-2.6,1-3.3,3.1-3.7
				c5-0.9,12.7-1.6,21.9-1.6c18.9,0,31.1,9.6,31.1,30.9v10.4C247.7,106.6,235.6,116.1,216.6,116.1 M228.1,74.8
				c0-11.4-3.8-14.4-11.5-14.4c-1.2,0-2.7,0-5.5,0.1v39.1c0.7,0.1,4.2,0.1,5.5,0.1c7.7,0,11.5-3,11.5-14.5V74.8z"/>
			<path class="st3" d="M273.6,116.1c-7.8,0-14.2-1-19.3-2.5c-1-0.3-2-0.9-2-1.9v-11.6c0-1.3,0.6-2,2-1.9c4.1,0.4,14.3,1.4,19.4,1.4
				c4.7,0,6-1.8,6-4.8c0-1.9-1-2.9-4.5-5l-13.8-8c-9-5.2-11.4-11.6-11.4-18.9c0-10.3,5.7-18.8,25.1-18.8c7.6,0,17.8,1.2,21.7,2.4
				c0.9,0.3,1.7,0.8,1.7,1.8V60c0,1-0.4,1.9-1.9,1.8c-3.9-0.3-14.8-1.2-21.7-1.2c-3.5,0-4.8,1.2-4.8,3.2c0,1.7,0.9,2.6,5,4.8
				l12.9,6.8c9.3,4.9,12.6,11.2,12.6,19C300.7,105,293.3,116.1,273.6,116.1"/>
		</g>
		<path class="st3" d="M413.5,52c0.2-1.3-1.2-2-2-2.3c-0.1,0-0.3-0.1-0.5-0.2c-0.1,0-0.2,0-0.3-0.1c-0.2,0-0.4-0.1-0.7-0.1
			c-0.1,0-0.1,0-0.2,0c-0.3-0.1-0.7-0.1-1-0.2c-0.1,0-0.2,0-0.3-0.1c-0.3-0.1-0.7-0.1-1.1-0.2l0,0c-0.3,0-0.6-0.1-0.9-0.2
			c-0.2,0-0.3-0.1-0.5-0.1c-0.3,0-0.6-0.1-0.9-0.1l-0.5-0.1c-0.9-0.1-1.7-0.3-2.3-0.3c-2.3-0.3-7.8-0.6-8.5-0.8
			c-0.7-0.1-0.9-0.5-1-1.1s0.5-1,0.5-1s5.8-1.4,6.8-1.7c0.1,0,0.3-0.1,0.6-0.2c0.1,0,0.2-0.1,0.3-0.1c0.2-0.1,0.4-0.1,0.6-0.2
			c0.2-0.1,0.3-0.1,0.5-0.2c0.2-0.1,0.4-0.1,0.6-0.2c0.2-0.1,0.3-0.1,0.5-0.2c0.4-0.1,0.8-0.3,1.2-0.4c0.1,0,0.3-0.1,0.4-0.1
			c0.3-0.1,0.7-0.2,1-0.3c0.1,0,0.3-0.1,0.4-0.1c0.3-0.1,0.5-0.2,0.8-0.3c0.1,0,0.3-0.1,0.4-0.1s0.2-0.1,0.2-0.1
			c0.2,0,0.3-0.1,0.4-0.1s0.2-0.1,0.2-0.1c0.2-0.1,0.4-0.1,0.5-0.2c0.7-0.3,1.1-0.8,1-1.6c-0.1-0.4-0.3-0.8-0.7-1.1
			c-0.4-0.3-0.8-0.5-1.3-0.6c-0.2,0-0.4,0-0.6,0c-0.1,0-0.1,0-0.2,0c-0.2,0-0.4,0-0.6,0.1h-0.1h-0.1c-0.6,0.1-1.3,0.2-2,0.4
			c-0.1,0-0.2,0-0.2,0.1c-0.2,0-0.4,0.1-0.6,0.1c-0.1,0-0.1,0-0.2,0c-0.2,0-0.4,0.1-0.5,0.1c-0.4,0.1-2.6,0.6-3.9,0.8
			c-0.6,0.1-0.3,0.1-0.8,0.2c-0.5,0.1-0.8,0.2-0.9,0.2c-0.3,0-4.1,0.8-5.8,1.1c-0.8,0.1-1.6,0.2-2.4,0.2c-0.3,0-0.6,0-0.9,0
			c-0.6,0-1.3-0.1-2-0.1c-2-0.2-3.2-1-3.4-2.1c-0.2-1.1,1.4-3.2,2.8-5.3s1.9-3.8,2-5.4s-0.9-2.6-1.9-3.3c-1-0.7-1.6,0.3-1.7,0.9
			s-2.1,4.5-2.8,5.6c-0.7,1.1-5.1,4-5.8,4.7c-0.7,0.7-4,4.6-6.3,7c-0.3,0.3-1,0.6-1.6,1l0,0c-1.9,1.7-4.6,1.6-4.6,1.6l-33.1,6.5
			l4.2,14.9l26.6-6.8c0,0,4.9-1.1,6.3-1.3c1-0.1,3-0.4,4.4-0.6l0,0c0.3,0.1,0.5,0.1,0.6,0.1s0.4,0.1,0.6,0.1c0.1,0,0.2,0,0.2,0.1
			c0.2,0.1,0.3,0.1,0.5,0.2c0.3,0.1,0.7,0.3,1,0.4c0.4,0.2,0.8,0.3,1,0.4c0.1,0,0.3,0.1,0.5,0.1c0.1,0,0.3,0.1,0.4,0.1
			s0.2,0.1,0.4,0.1c0.2,0,0.5,0.1,0.7,0.2c0.1,0,0.2,0,0.3,0.1c0.2,0,0.4,0.1,0.6,0.1s0.3,0.1,0.5,0.1c0.1,0,0.1,0,0.2,0
			c0.9,0.2,1.9,0.4,2.6,0.6h0.1c0.1,0,0.2,0,0.3,0.1c0.1,0,0.2,0,0.2,0.1c0.2,0,0.3,0.1,0.4,0.1c0.2,0,1.2,0.4,1.6,0.6
			c0.4,0.2,0.2,0.1,0.5,0.1c0.2,0,0.5,0.1,0.8,0.2c0.3,0.1,0.7,0.1,1,0.2l0,0c0.3,0.1,0.5,0.1,0.8,0.2c0.3,0.1,0.6,0.2,1,0.4
			c0,0,0,0,0.1,0c0.4,0.2,0.8,0.4,1.2,0.6c0.1,0,0.1,0.1,0.2,0.1c0.1,0.1,0.2,0.1,0.3,0.2c0,0,0.1,0,0.1,0.1
			c0.4,0.2,0.7,0.4,0.7,0.4s0.4,0.2,1.1,0.6c0.1,0,0.1,0.1,0.2,0.1c0.3,0.2,0.7,0.4,1.1,0.6s0.8,0.4,1.2,0.7
			c0.1,0.1,0.3,0.1,0.4,0.2c0.4,0.2,0.8,0.4,1.2,0.7c0.1,0,0.1,0.1,0.2,0.1c0.4,0.2,0.8,0.4,1.1,0.6l0,0c0.3,0.2,0.6,0.3,0.9,0.5
			c0.1,0,0.1,0,0.1,0.1c0.2,0.1,0.4,0.2,0.4,0.2c0.5,0.2,1.5,0.7,2.2-0.5s-0.4-2.1-0.4-2.1s-3-1.9-4-2.6c-0.5-0.3-0.9-0.6-1.2-1
			c-0.1,0-0.1-0.1-0.2-0.1c-0.3-0.3-0.6-0.6-0.9-0.8c-0.1-0.1-0.3-0.2-0.4-0.3c-0.1,0-0.1-0.1-0.2-0.1c-0.1-0.1-0.3-0.2-0.4-0.2
			s-0.1-0.1-0.2-0.1c-0.2-0.1-0.3-0.2-0.5-0.3c-0.3-0.2-0.6-0.3-0.8-0.4c0,0,0,0-0.1,0c-0.2-0.1-0.4-0.2-0.5-0.3c0,0-0.1,0-0.1-0.1
			c-0.2-0.1-0.3-0.2-0.3-0.2c-0.2-0.2-0.4-0.4-0.5-0.6l0,0c-0.1-0.2-0.1-0.4,0-0.6c0.2-0.4,0.6-0.4,0.8-0.4c0.1,0,0.1,0,0.1,0
			l4.4,1.1l2.3,0.6l0,0l9.9,2.1c0,0,0.9,0.2,1.5-0.4c0.2-0.2,0.4-0.5,0.5-0.9c0.2-0.6,0.1-1.1-0.2-1.4c-0.5-0.6-1.4-0.8-2.1-1
			c-0.1,0-0.3-0.1-0.6-0.2c-0.1,0-0.1,0-0.2-0.1c-0.3-0.1-0.6-0.2-1-0.3l0,0c-0.4-0.1-0.8-0.2-1.2-0.4c-0.1,0-0.1,0-0.2-0.1
			c-2.4-0.7-5.1-1.6-5.1-1.6s-3.8-1-4.5-1.3s-1-0.9-1-0.9h0.2c0,0,0.2,0,0.4,0c0.1,0,0.3,0,0.5,0c0.6,0,1.6,0.1,2.7,0.2
			c0.8,0.1,1.6,0.1,2.5,0.2c0.2,0,0.4,0,0.5,0c0.2,0,0.5,0,0.7,0.1c0.4,0,0.9,0.1,1.3,0.1c0.1,0,0.3,0,0.4,0c1,0.1,2.1,0.1,3.1,0.2
			c0.1,0,0.1,0,0.2,0c0.4,0,0.8,0.1,1.2,0.1c0.1,0,0.3,0,0.4,0c0.2,0,0.4,0,0.6,0c0.3,0,0.6,0,0.8,0.1c0.2,0,0.3,0,0.5,0
			s0.5,0,0.7,0.1c0.1,0,0.2,0,0.4,0c0.2,0,0.4,0,0.5,0c0.2,0,0.3,0,0.4,0s0.1,0,0.2,0s0.3,0,0.3,0C412.5,53.7,413.4,53.3,413.5,52"
			/>
		<path class="st3" d="M404.4,150.6h-56.2c-1.6,0-2.9-1.3-2.9-2.9V122c0-1.6,1.3-2.9,2.9-2.9h56.2c1.6,0,2.9,1.3,2.9,2.9v25.7
			C407.4,149.3,406.1,150.6,404.4,150.6"/>
	</g>
</g>
</svg>
