<?xml version="1.0" encoding="utf-8"?>
<!-- Generator: Adobe Illustrator 20.0.0, SVG Export Plug-In . SVG Version: 6.00 Build 0)  -->
<svg version="1.1" id="Layer_1" xmlns="http://www.w3.org/2000/svg" xmlns:xlink="http://www.w3.org/1999/xlink" x="0px" y="0px"
	 viewBox="0 0 200.5 73.8" style="enable-background:new 0 0 200.5 73.8;" xml:space="preserve">
<style type="text/css">
	.st0{fill:#FFFFFF;}
	.st1{fill:none;}
</style>
<path d="M68.9,22.9c0.1,1.4,0.3,2.7,0.6,3.9c0.4,1.1,1,2.2,1.7,3.4c1.2,2,2.5,4.2,2.5,6.8c0,2.6-1.3,4.8-2.5,6.8
	c-0.7,1.2-1.4,2.3-1.7,3.4c-0.4,1.1-0.5,2.5-0.6,3.9h127.4v-28H68.9z"/>
<g>
	<path class="st0" d="M91.7,38.9c0.3-0.4,0.6-1,0.9-1.6c0.3-0.7,0.4-1.5,0.4-2.4c0-1.2-0.2-2.2-0.6-3.2c-0.4-0.9-1-1.7-1.8-2.3
		c-0.8-0.6-1.7-1.1-2.7-1.4c-1-0.3-2.2-0.5-3.4-0.5H78v18.9h6v-4.8l2.8,4.8H94l-3.5-6.2C90.9,39.8,91.3,39.4,91.7,38.9z M86.2,36.3
		c-0.5,0.3-1.1,0.5-1.8,0.5h-0.3v-4.2h0.3c0.7,0,1.3,0.2,1.8,0.5c0.5,0.3,0.8,0.9,0.8,1.6S86.7,35.9,86.2,36.3z"/>
	<path class="st0" d="M102.5,27.4l-7.2,18.9h6l0.6-1.7h5.7l0.6,1.7h6l-7.2-18.9H102.5z M103.5,40.5l1.3-3.3l1.3,3.3H103.5z"/>
	<polygon class="st0" points="126.1,34.7 120.8,27.4 115.9,27.4 115.9,46.4 121.8,46.4 121.8,39.1 127,46.4 132,46.4 132,27.4 
		126.1,27.4 	"/>
	<path class="st0" d="M151.1,29.9c-0.9-0.9-2-1.6-3.2-2.1c-1.2-0.5-2.5-0.8-3.9-0.8c-1.4,0-2.6,0.3-3.9,0.8
		c-1.2,0.5-2.3,1.2-3.2,2.1c-0.9,0.9-1.6,2-2.1,3.2s-0.8,2.5-0.8,3.9s0.3,2.6,0.8,3.9c0.5,1.2,1.2,2.3,2.1,3.2
		c0.9,0.9,2,1.6,3.2,2.1c1.2,0.5,2.5,0.8,3.9,0.8c1.4,0,2.6-0.3,3.9-0.8c1.2-0.5,2.3-1.2,3.2-2.1c0.9-0.9,1.6-2,2.1-3.2
		c0.5-1.2,0.8-2.5,0.8-3.9s-0.3-2.6-0.8-3.9C152.7,31.8,152,30.8,151.1,29.9z M147.7,38.5c-0.2,0.5-0.5,0.9-0.9,1.3
		c-0.4,0.4-0.8,0.6-1.3,0.9c-0.5,0.2-1,0.3-1.5,0.3c-0.5,0-1.1-0.1-1.5-0.3c-0.5-0.2-0.9-0.5-1.3-0.9c-0.4-0.4-0.6-0.8-0.9-1.3
		c-0.2-0.5-0.3-1-0.3-1.5s0.1-1.1,0.3-1.5c0.2-0.5,0.5-0.9,0.9-1.3c0.4-0.4,0.8-0.6,1.3-0.9c0.5-0.2,1-0.3,1.5-0.3
		c0.5,0,1.1,0.1,1.5,0.3c0.5,0.2,0.9,0.5,1.3,0.9c0.4,0.4,0.6,0.8,0.9,1.3c0.2,0.5,0.3,1,0.3,1.5S147.9,38,147.7,38.5z"/>
	<path class="st0" d="M169.6,37c-0.3-0.4-0.7-0.8-1.1-1c0.3-0.2,0.5-0.5,0.7-0.9c0.2-0.3,0.3-0.6,0.5-1.1c0.2-0.4,0.2-0.9,0.2-1.5
		c0-0.9-0.2-1.6-0.5-2.2c-0.3-0.6-0.7-1.2-1.3-1.6c-0.6-0.4-1.2-0.7-2-1c-0.8-0.2-1.6-0.3-2.6-0.3h-7.4v18.9h7.7
		c1.1,0,2-0.1,2.9-0.4c0.9-0.3,1.6-0.7,2.2-1.2c0.6-0.5,1.1-1.1,1.4-1.9c0.3-0.7,0.5-1.6,0.5-2.5c0-0.8-0.1-1.5-0.4-2
		C170.2,37.8,169.9,37.4,169.6,37z M161.9,31.9h0.7c0.9,0,1.4,0.4,1.4,1.3c0,0.9-0.5,1.3-1.4,1.3h-0.7V31.9z M162.6,41.9h-0.7v-3.3
		h0.7c1.4,0,2.2,0.5,2.2,1.6C164.8,41.4,164.1,41.9,162.6,41.9z"/>
	<path class="st0" d="M191.5,33c-0.5-1.2-1.2-2.3-2.1-3.2c-0.9-0.9-2-1.6-3.2-2.1c-1.2-0.5-2.5-0.8-3.9-0.8c-1.4,0-2.6,0.3-3.9,0.8
		c-1.2,0.5-2.3,1.2-3.2,2.1c-0.9,0.9-1.6,2-2.1,3.2s-0.8,2.5-0.8,3.9s0.3,2.6,0.8,3.9c0.5,1.2,1.2,2.3,2.1,3.2
		c0.9,0.9,2,1.6,3.2,2.1c1.2,0.5,2.5,0.8,3.9,0.8c1.4,0,2.6-0.3,3.9-0.8c1.2-0.5,2.3-1.2,3.2-2.1c0.9-0.9,1.6-2,2.1-3.2
		c0.5-1.2,0.8-2.5,0.8-3.9S192.1,34.3,191.5,33z M186,38.5c-0.2,0.5-0.5,0.9-0.9,1.3c-0.4,0.4-0.8,0.6-1.3,0.9
		c-0.5,0.2-1,0.3-1.5,0.3c-0.5,0-1.1-0.1-1.5-0.3c-0.5-0.2-0.9-0.5-1.3-0.9c-0.4-0.4-0.6-0.8-0.9-1.3c-0.2-0.5-0.3-1-0.3-1.5
		s0.1-1.1,0.3-1.5c0.2-0.5,0.5-0.9,0.9-1.3c0.4-0.4,0.8-0.6,1.3-0.9c0.5-0.2,1-0.3,1.5-0.3c0.5,0,1.1,0.1,1.5,0.3
		c0.5,0.2,0.9,0.5,1.3,0.9c0.4,0.4,0.6,0.8,0.9,1.3c0.2,0.5,0.3,1,0.3,1.5S186.3,38,186,38.5z"/>
</g>
<path d="M72.3,36.9c0,3.5-3.1,6.5-4.1,9.7c-1.1,3.3-0.4,7.5-2.3,10.3c-2,2.8-6.3,3.4-9.1,5.4c-2.7,2-4.6,5.9-7.9,7
	c-3.2,1-7-1-10.5-1c-3.5,0-7.3,2-10.5,1c-3.3-1.1-5.2-5-7.9-7c-2.8-2-7-2.6-9.1-5.4c-2-2.7-1.3-7-2.3-10.3c-1-3.2-4.1-6.2-4.1-9.7
	c0-3.5,3.1-6.5,4.1-9.7c1.1-3.3,0.4-7.5,2.3-10.3c2-2.8,6.3-3.4,9.1-5.4c2.7-2,4.6-5.9,7.9-7c3.2-1,7,1,10.5,1c3.5,0,7.3-2,10.5-1
	c3.3,1.1,5.2,5,7.9,7c2.8,2,7,2.6,9.1,5.4c2,2.7,1.3,7,2.3,10.3C69.2,30.4,72.3,33.4,72.3,36.9z"/>
<path d="M72.3,36.9c0,3.5-3.1,6.5-4.1,9.7c-1.1,3.3-0.4,7.5-2.3,10.3c-2,2.8-6.3,3.4-9.1,5.4c-2.7,2-4.6,5.9-7.9,7
	c-3.2,1-7-1-10.5-1c-3.5,0-7.3,2-10.5,1c-3.3-1.1-5.2-5-7.9-7c-2.8-2-7-2.6-9.1-5.4c-2-2.7-1.3-7-2.3-10.3c-1-3.2-4.1-6.2-4.1-9.7
	c0-3.5,3.1-6.5,4.1-9.7c1.1-3.3,0.4-7.5,2.3-10.3c2-2.8,6.3-3.4,9.1-5.4c2.7-2,4.6-5.9,7.9-7c3.2-1,7,1,10.5,1c3.5,0,7.3-2,10.5-1
	c3.3,1.1,5.2,5,7.9,7c2.8,2,7,2.6,9.1,5.4c2,2.7,1.3,7,2.3,10.3C69.2,30.4,72.3,33.4,72.3,36.9z"/>
<path d="M72.3,36.9c0,3.5-3.1,6.5-4.1,9.7c-1.1,3.3-0.4,7.5-2.3,10.3c-2,2.8-6.3,3.4-9.1,5.4c-2.7,2-4.6,5.9-7.9,7
	c-3.2,1-7-1-10.5-1c-3.5,0-7.3,2-10.5,1c-3.3-1.1-5.2-5-7.9-7c-2.8-2-7-2.6-9.1-5.4c-2-2.7-1.3-7-2.3-10.3c-1-3.2-4.1-6.2-4.1-9.7
	c0-3.5,3.1-6.5,4.1-9.7c1.1-3.3,0.4-7.5,2.3-10.3c2-2.8,6.3-3.4,9.1-5.4c2.7-2,4.6-5.9,7.9-7c3.2-1,7,1,10.5,1c3.5,0,7.3-2,10.5-1
	c3.3,1.1,5.2,5,7.9,7c2.8,2,7,2.6,9.1,5.4c2,2.7,1.3,7,2.3,10.3C69.2,30.4,72.3,33.4,72.3,36.9z"/>
<path class="st0" d="M30.2,6.2c1.2,0,2.5,0.3,3.9,0.6c1.4,0.3,2.8,0.6,4.2,0.6c1.4,0,2.8-0.3,4.2-0.6c1.4-0.3,2.6-0.6,3.9-0.6
	c0.7,0,1.3,0.1,1.8,0.3c1.8,0.6,3.2,2.2,4.5,3.7c0.9,1,1.9,2.1,2.9,2.9c1.1,0.8,2.4,1.4,3.7,1.9c1.9,0.8,3.8,1.6,4.9,3.1
	c1.1,1.5,1.3,3.5,1.5,5.6c0.1,1.4,0.3,2.8,0.7,4.1c0.4,1.2,1.1,2.4,1.8,3.6c1,1.8,2.1,3.6,2.1,5.5c0,1.9-1.1,3.7-2.1,5.5
	c-0.7,1.2-1.4,2.4-1.8,3.6c-0.4,1.3-0.6,2.7-0.7,4.1c-0.2,2.1-0.4,4.1-1.5,5.6c-1.1,1.5-2.9,2.3-4.9,3.1c-1.3,0.6-2.6,1.1-3.7,1.9
	c-1.1,0.8-2,1.9-2.9,2.9c-1.3,1.5-2.7,3.1-4.5,3.7c-0.5,0.2-1.1,0.3-1.8,0.3c-1.2,0-2.5-0.3-3.9-0.6c-1.4-0.3-2.8-0.6-4.2-0.6
	c-1.4,0-2.8,0.3-4.2,0.6c-1.4,0.3-2.6,0.6-3.9,0.6c-0.7,0-1.3-0.1-1.8-0.3c-1.8-0.6-3.2-2.2-4.5-3.7c-0.9-1-1.9-2.1-2.9-2.9
	c-1.1-0.8-2.4-1.4-3.7-1.9c-1.9-0.8-3.8-1.6-4.9-3.1c-1.1-1.5-1.3-3.5-1.5-5.6c-0.1-1.4-0.3-2.8-0.7-4.1c-0.4-1.2-1.1-2.4-1.8-3.6
	c-1-1.8-2.1-3.6-2.1-5.5c0-1.9,1.1-3.7,2.1-5.5c0.7-1.2,1.4-2.4,1.8-3.6c0.4-1.3,0.6-2.7,0.7-4.1c0.2-2.1,0.4-4.1,1.5-5.6
	c1.1-1.5,2.9-2.3,4.9-3.1c1.3-0.6,2.6-1.1,3.7-1.9c1.1-0.8,2-1.9,2.9-2.9c1.3-1.5,2.7-3.1,4.5-3.7C28.9,6.3,29.5,6.2,30.2,6.2
	 M46.4,5.7c-2.6,0-5.4,1.2-8.1,1.2c-2.7,0-5.5-1.2-8.1-1.2c-0.7,0-1.3,0.1-1.9,0.3c-3.2,1-5,4.7-7.6,6.7c-2.7,1.9-6.7,2.5-8.7,5.2
	c-1.9,2.6-1.2,6.7-2.2,9.8c-1,3-4,5.9-4,9.3c0,3.4,3,6.2,4,9.3c1,3.2,0.3,7.2,2.2,9.8c1.9,2.7,6,3.2,8.7,5.2
	c2.6,1.9,4.4,5.6,7.6,6.7c0.6,0.2,1.3,0.3,1.9,0.3c2.6,0,5.4-1.2,8.1-1.2c2.7,0,5.5,1.2,8.1,1.2c0.7,0,1.3-0.1,1.9-0.3
	c3.2-1,5-4.7,7.6-6.7c2.7-1.9,6.7-2.5,8.7-5.2c1.9-2.6,1.2-6.7,2.2-9.8c1-3,4-5.9,4-9.3c0-3.4-3-6.2-4-9.3c-1-3.2-0.3-7.2-2.2-9.8
	c-1.9-2.7-6-3.2-8.7-5.2C53.3,10.7,51.5,7,48.3,6C47.7,5.8,47,5.7,46.4,5.7L46.4,5.7z"/>
<rect x="37.6" y="63.8" class="st1" width="0.9" height="0.3"/>
<g>
	<path class="st0" d="M17.3,23.9c0.1,0.3,0,0.5-0.1,0.8l-0.5,0.9l-2.5-1.5l0.5-0.9c0.1-0.2,0.3-0.4,0.6-0.5c0.4-0.1,0.8,0.1,1.1,0.3
		C16.8,23.3,17.1,23.5,17.3,23.9z M15.4,23.2c-0.1,0-0.3,0.1-0.4,0.3l-0.2,0.4l1.6,0.9l0.2-0.4c0.1-0.2,0.1-0.3,0-0.4
		c-0.1-0.2-0.2-0.3-0.6-0.5C15.7,23.3,15.6,23.2,15.4,23.2z"/>
	<path class="st0" d="M18.1,23.1l-2.3-1.7l1.1-1.5l0.4,0.3l-0.8,1l0.5,0.4l0.6-0.9l0.4,0.3L17.4,22l0.6,0.4l0.8-1l0.4,0.3L18.1,23.1
		z"/>
	<path class="st0" d="M21.8,18.9l-2-0.5l1.2,1.3L20.6,20l-2-2.1l0.3-0.3l2,0.5l-1.2-1.3l0.4-0.4l2,2.1L21.8,18.9z"/>
	<path class="st0" d="M24,17l-0.4-0.3l-0.8,0.6l0.2,0.5l-0.4,0.3l-0.9-2.9l0.3-0.3l2.6,1.7L24,17z M22.3,15.8l0.4,1.1l0.5-0.4
		L22.3,15.8z"/>
	<path class="st0" d="M24.5,13.9l1.3,2l-0.5,0.3l-1.3-2l-0.6,0.4l-0.3-0.4l1.7-1l0.3,0.4L24.5,13.9z"/>
	<path class="st0" d="M27.9,14.8c-0.5,0.2-1.1,0.1-1.4-0.5l-0.8-1.7l0.5-0.2l0.8,1.7c0.1,0.3,0.4,0.4,0.7,0.3
		c0.3-0.1,0.4-0.4,0.2-0.7L27.1,12l0.5-0.2l0.8,1.7C28.6,14,28.4,14.6,27.9,14.8z"/>
	<path class="st0" d="M30.5,13.8c-0.5,0.2-1.1-0.1-1.3-0.6l-0.6-1.8l0.5-0.2l0.6,1.8c0.1,0.3,0.3,0.4,0.6,0.4
		c0.3-0.1,0.4-0.3,0.3-0.7L30,10.8l0.5-0.2l0.6,1.8C31.4,13.1,31.1,13.6,30.5,13.8z"/>
	<path class="st0" d="M33.7,12.9l-0.8-1L32.6,12l0.2,1.1l-0.5,0.1l-0.6-2.8l1.1-0.2c0.6-0.1,1,0.2,1.1,0.7c0.1,0.4-0.1,0.7-0.3,0.9
		l0.9,1.1L33.7,12.9z M32.8,10.6l-0.5,0.1l0.2,0.8l0.5-0.1c0.2,0,0.4-0.2,0.3-0.5C33.3,10.7,33.1,10.6,32.8,10.6z"/>
	<path class="st0" d="M37.9,12.5l0-1.2l-0.9,0l0,1.2l-0.5,0l-0.1-2.9l0.5,0l0,1.2l0.9,0l0-1.2l0.5,0l0.1,2.9L37.9,12.5z"/>
	<path class="st0" d="M39.3,12.5l0.2-2.9l1.8,0.1l0,0.5L40,10.1L40,10.8l1.1,0.1l0,0.5l-1.1-0.1L39.9,12l1.3,0.1l0,0.5L39.3,12.5z"
		/>
	<path class="st0" d="M41.9,12.7l0.5-2.9l1.8,0.3l-0.1,0.5l-1.3-0.2l-0.1,0.7l1.1,0.2l-0.1,0.5l-1.1-0.2l-0.1,0.7l1.3,0.2l-0.1,0.5
		L41.9,12.7z"/>
	<path class="st0" d="M45.7,11.1l-0.2,0.7l1,0.3l-0.1,0.5l-1-0.3L45,13.4l-0.5-0.2l0.8-2.8l1.7,0.5l-0.1,0.5L45.7,11.1z"/>
	<path class="st0" d="M48.9,12.3l-0.9,2.2l-0.5-0.2l0.9-2.2l-0.7-0.3l0.2-0.5l1.8,0.8l-0.2,0.5L48.9,12.3z"/>
	<path class="st0" d="M51.1,16.1c-0.4-0.2-0.6-0.5-0.7-0.9l0.5-0.1c0.1,0.2,0.2,0.4,0.4,0.6c0.3,0.2,0.5,0.2,0.6,0
		c0.1-0.1,0.1-0.2,0.1-0.3c0-0.1-0.1-0.1-0.2-0.2L51.6,15c-0.2-0.2-0.3-0.3-0.3-0.5c0-0.2,0-0.4,0.1-0.6c0.3-0.4,0.8-0.6,1.3-0.2
		c0.3,0.2,0.5,0.4,0.6,0.8l-0.5,0.1c-0.1-0.2-0.2-0.4-0.4-0.5c-0.2-0.2-0.5-0.1-0.6,0.1c0,0.1-0.1,0.1,0,0.2c0,0.1,0.1,0.2,0.2,0.2
		l0.3,0.2c0.2,0.2,0.3,0.3,0.3,0.5c0,0.2,0,0.4-0.1,0.6C52.1,16.4,51.6,16.5,51.1,16.1z"/>
	<path class="st0" d="M54.1,18.3l1.1-1.3l-1.1,0.5l-0.3-0.2l0.3-1.2L53,17.4l-0.4-0.3l1.8-2.3l0.4,0.3l-0.4,1.7l1.5-0.8l0.4,0.3
		l-1.8,2.3L54.1,18.3z"/>
	<path class="st0" d="M56.3,20.4l0.3-0.5l-0.7-0.7l-0.5,0.2L55,19l2.8-1.3L58,18l-1.4,2.7L56.3,20.4z M57.3,18.5l-1,0.5l0.5,0.5
		L57.3,18.5z"/>
	<path class="st0" d="M58.1,22.6l0.3-0.4l-0.6-0.8l-0.5,0.2L57,21.2l2.9-1l0.3,0.3l-1.7,2.6L58.1,22.6z M59.4,20.9l-1.1,0.4l0.4,0.5
		L59.4,20.9z"/>
	<path class="st0" d="M59.6,25l0.8-1.3l-0.6-0.1l-0.8,0.4l-0.3-0.5l2.5-1.5l0.3,0.5l-1.1,0.6l1.6,0.2l0.3,0.6l-1.5-0.2l-1,1.7
		L59.6,25z"/>
	<path class="st0" d="M61.5,27.3c-0.1-0.3,0-0.7,0.4-0.8c0.3-0.1,0.7,0,0.9,0.3c0.1,0.3,0,0.7-0.4,0.8C62,27.8,61.6,27.6,61.5,27.3z
		"/>
	<path class="st0" d="M61.7,30.1l2.8-0.7l0.1,0.5l-2.3,0.6l0.3,1.2l-0.5,0.1L61.7,30.1z"/>
	<path class="st0" d="M62.6,34.4l0.5-0.2l-0.1-1l-0.5-0.1l-0.1-0.6l3,0.6l0.1,0.4l-2.7,1.4L62.6,34.4z M64.5,33.5l-1.1-0.2l0.1,0.7
		L64.5,33.5z"/>
	<path class="st0" d="M62.7,38.5l1.8-1l-1.8-0.1l0-0.5l2.9,0.1l0,0.5l-1.8,1l1.8,0.1l0,0.5L62.6,39L62.7,38.5z"/>
	<path class="st0" d="M62.3,41.6l0.5-0.1l0.2-1l-0.5-0.2l0.1-0.6l2.7,1.5l-0.1,0.4l-3,0.5L62.3,41.6z M64.4,41.3l-1-0.5l-0.1,0.7
		L64.4,41.3z"/>
	<path class="st0" d="M64.1,44l-2.3-0.6l0.1-0.5l2.3,0.6l0.2-0.7l0.5,0.1l-0.5,1.9L64,44.7L64.1,44z"/>
	<path class="st0" d="M61,45.7c0.2-0.5,0.7-0.8,1.3-0.6l1.8,0.7L64,46.3l-1.8-0.7c-0.3-0.1-0.6,0-0.7,0.3c-0.1,0.3,0,0.5,0.3,0.6
		l1.8,0.7l-0.2,0.5L61.6,47C61.1,46.8,60.8,46.2,61,45.7z"/>
	<path class="st0" d="M59.7,48.7l1.3,0.1l0.2-0.3l-1-0.5l0.2-0.5l2.6,1.3l-0.5,1c-0.3,0.5-0.8,0.6-1.2,0.4c-0.4-0.2-0.5-0.5-0.4-0.8
		l-1.4,0L59.7,48.7z M62,49.5l0.2-0.5l-0.7-0.4l-0.2,0.5c-0.1,0.2,0,0.4,0.2,0.5C61.7,49.7,61.9,49.7,62,49.5z"/>
	<path class="st0" d="M59,49.9l2.4,1.6l-1,1.5l-0.4-0.3l0.7-1.1l-0.6-0.4l-0.6,0.9L59,52l0.6-0.9l-0.6-0.4l-0.7,1.1l-0.4-0.3
		L59,49.9z"/>
	<path class="st0" d="M55.5,54.3l0.5,0.2l0.7-0.7l-0.3-0.5l0.4-0.4l1.4,2.7l-0.3,0.3l-2.8-1.3L55.5,54.3z M57.4,55.2l-0.5-1
		l-0.5,0.5L57.4,55.2z"/>
	<path class="st0" d="M52.4,57.2c0-0.3,0.2-0.5,0.4-0.7l0.8-0.6l1.7,2.3l-0.8,0.6c-0.2,0.2-0.5,0.3-0.8,0.2
		c-0.4-0.1-0.7-0.4-0.9-0.8C52.6,58,52.3,57.6,52.4,57.2z M53.9,58.5c0.1,0,0.3,0,0.4-0.1l0.3-0.2l-1.1-1.5l-0.3,0.2
		c-0.1,0.1-0.2,0.2-0.2,0.4c0,0.2,0.1,0.3,0.4,0.7C53.6,58.3,53.7,58.5,53.9,58.5z"/>
	<path class="st0" d="M50.5,58c0.5-0.3,1.1-0.2,1.4,0.4l1,1.7l-0.5,0.3l-0.9-1.6c-0.2-0.3-0.4-0.4-0.7-0.2c-0.3,0.1-0.3,0.4-0.2,0.7
		l0.9,1.6l-0.5,0.3l-1-1.7C49.8,58.9,50,58.3,50.5,58z"/>
	<path class="st0" d="M46.1,60.4c0.1-0.3,0.3-0.5,0.6-0.6c0.3-0.1,0.6-0.1,0.8,0c0.4,0.2,0.5,0.5,0.7,1c0.2,0.5,0.3,0.8,0.1,1.2
		c-0.1,0.3-0.3,0.4-0.6,0.6c-0.6,0.2-1.1-0.1-1.3-0.5l0.5-0.2c0.2,0.2,0.4,0.3,0.6,0.2c0.1-0.1,0.2-0.2,0.3-0.3
		c0.1-0.2,0-0.3-0.2-0.8c-0.2-0.5-0.3-0.6-0.4-0.7c-0.1-0.1-0.2-0.1-0.4,0c-0.2,0.1-0.3,0.2-0.3,0.3c0,0.1,0,0.3,0,0.4l0,0.1
		l0.5-0.2l0.2,0.4l-1,0.4l-0.1-0.4C46,60.9,46,60.6,46.1,60.4z"/>
	<path class="st0" d="M43.4,61.1c0.1-0.2,0.3-0.4,0.6-0.5c0.3-0.1,0.6,0,0.8,0.1c0.3,0.2,0.4,0.6,0.5,1.1c0.1,0.5,0.2,0.8,0,1.2
		c-0.1,0.2-0.3,0.4-0.7,0.5c-0.3,0.1-0.6,0-0.8-0.1c-0.3-0.2-0.4-0.6-0.5-1.1C43.3,61.8,43.2,61.4,43.4,61.1z M44.3,62.9
		c0.1,0.1,0.2,0.1,0.4,0.1c0.1,0,0.2-0.1,0.3-0.2c0.1-0.1,0.1-0.3-0.1-0.8c-0.1-0.5-0.2-0.7-0.3-0.8c-0.1-0.1-0.2-0.1-0.4-0.1
		c-0.1,0-0.2,0.1-0.3,0.2c-0.1,0.1-0.1,0.3,0.1,0.8C44.1,62.7,44.1,62.8,44.3,62.9z"/>
	<path class="st0" d="M41.3,61.1c0.6-0.1,1.1,0.3,1.1,0.9l0.2,1.9L42.2,64l-0.2-1.9c0-0.3-0.3-0.5-0.5-0.5c-0.3,0-0.5,0.3-0.4,0.6
		l0.2,1.9l-0.5,0.1l-0.2-1.9C40.4,61.6,40.8,61.2,41.3,61.1z M41.4,64.3l0.4,0.3l0.3-0.4l0.4,0L42,65L41.6,65L41,64.4L41.4,64.3z"/>
	<path class="st0" d="M38.4,63.7l0-2.4l0.5,0l0,2.4l0.7,0l0,0.5l-2,0l0-0.5L38.4,63.7z"/>
	<path class="st0" d="M35.1,61.8c0.3,0,0.6,0.4,0.5,0.7c0,0.4-0.4,0.6-0.7,0.6c-0.3,0-0.6-0.4-0.5-0.7
		C34.4,62.1,34.8,61.8,35.1,61.8z"/>
	<path class="st0" d="M31,60.2l0.6,2l0.5-1.7l0.5,0.1l-0.8,2.8l-0.5-0.1l-0.6-2L30.3,63l-0.5-0.1l0.8-2.8L31,60.2z"/>
	<path class="st0" d="M28.2,59.2l0,0.5l0.9,0.4l0.4-0.4l0.5,0.2l-2.1,2.3L27.5,62l0.2-3.1L28.2,59.2z M28,61.3l0.7-0.8l-0.6-0.3
		L28,61.3z"/>
	<path class="st0" d="M25.4,60.5l1.1-2.1l0.5,0.2l-1.1,2.1l0.6,0.3l-0.2,0.4l-1.8-0.9l0.2-0.4L25.4,60.5z"/>
	<path class="st0" d="M24.5,57.1c0.5,0.3,0.6,0.9,0.3,1.4l-1.1,1.6l-0.4-0.3l1.1-1.6c0.2-0.3,0.1-0.5-0.1-0.7
		c-0.2-0.2-0.5-0.1-0.7,0.2l-1.1,1.6L22,58.9l1.1-1.6C23.4,56.8,24,56.7,24.5,57.1z"/>
	<path class="st0" d="M21.9,55.1l-0.3,1.2l0.3,0.3l0.8-0.9L23,56l-1.9,2.2l-0.8-0.7c-0.4-0.4-0.4-0.9-0.1-1.3
		c0.3-0.3,0.6-0.3,0.9-0.2l0.3-1.4L21.9,55.1z M20.7,57.2l0.4,0.3l0.5-0.6l-0.4-0.3c-0.2-0.2-0.4-0.1-0.5,0
		C20.5,56.8,20.5,57,20.7,57.2z"/>
	<path class="st0" d="M21,54.2l-2.1,2l-1.2-1.3l0.4-0.3l0.9,0.9l0.5-0.5l-0.7-0.8l0.4-0.3l0.7,0.8l0.5-0.5l-0.9-0.9l0.4-0.3L21,54.2
		z"/>
	<path class="st0" d="M17.6,49.9l-1,0.7l0.5,0.8l1-0.7l0.3,0.5L16,52.7l-0.3-0.5l1-0.6l-0.5-0.8l-1,0.6L14.9,51l2.4-1.6L17.6,49.9z"
		/>
	<path class="st0" d="M16.1,47.2l-0.4,0.4l0.4,0.9l0.5-0.1l0.3,0.5l-3,0.4l-0.2-0.4l2.2-2.2L16.1,47.2z M14.6,48.7l1.1-0.2l-0.3-0.6
		L14.6,48.7z"/>
	<path class="st0" d="M15.4,45.3c0.1,0.4,0.2,0.7,0,1.1l-0.5-0.2c0.1-0.2,0.1-0.5,0-0.7c-0.1-0.3-0.3-0.4-0.5-0.3
		c-0.1,0-0.2,0.1-0.2,0.2c0,0.1,0,0.1,0,0.3l0.1,0.3c0,0.2,0,0.4,0,0.6c-0.1,0.2-0.2,0.3-0.5,0.4c-0.5,0.2-1,0-1.2-0.6
		c-0.1-0.4-0.1-0.7,0-1l0.5,0.2c-0.1,0.2-0.1,0.4,0,0.6c0.1,0.3,0.3,0.3,0.5,0.3c0.1,0,0.1-0.1,0.2-0.1c0-0.1,0-0.2,0-0.3l-0.1-0.3
		c-0.1-0.3,0-0.4,0-0.6c0.1-0.2,0.3-0.3,0.5-0.4C14.7,44.4,15.2,44.7,15.4,45.3z"/>
	<path class="st0" d="M11.9,41.6l2.4-0.4l0.1,0.5L12,42.2l0.1,0.7L11.6,43l-0.4-2l0.5-0.1L11.9,41.6z"/>
	<path class="st0" d="M13.9,38.6l-0.5,0.2l0.1,1l0.5,0.1l0.1,0.6l-3-0.7l0-0.4l2.8-1.3L13.9,38.6z M11.9,39.4l1.1,0.2L12.9,39
		L11.9,39.4z"/>
	<path class="st0" d="M13.9,36.6c0,0.4-0.1,0.7-0.4,1l-0.4-0.4c0.2-0.2,0.3-0.4,0.3-0.7c0-0.3-0.1-0.5-0.4-0.5c-0.1,0-0.2,0-0.2,0.1
		c-0.1,0.1-0.1,0.1-0.1,0.2l-0.1,0.3c0,0.2-0.1,0.4-0.2,0.5c-0.1,0.1-0.3,0.2-0.6,0.2c-0.5,0-0.9-0.4-0.9-1c0-0.4,0.1-0.7,0.4-0.9
		l0.3,0.3c-0.2,0.2-0.2,0.4-0.2,0.6c0,0.3,0.2,0.4,0.4,0.4c0.1,0,0.2,0,0.2-0.1c0.1-0.1,0.1-0.1,0.1-0.3l0.1-0.3
		c0-0.3,0.1-0.4,0.2-0.5c0.1-0.1,0.4-0.2,0.6-0.2C13.6,35.6,13.9,36,13.9,36.6z"/>
	<path class="st0" d="M11.6,33.6l2.4,0.3L14,34.4l-2.4-0.3l-0.1,0.7L11,34.8l0.2-2l0.5,0.1L11.6,33.6z"/>
	<path class="st0" d="M14.2,32.6L11.4,32l0.4-1.8l0.5,0.1L12,31.5l0.7,0.1l0.2-1.1l0.5,0.1l-0.2,1.1l0.7,0.1l0.3-1.3l0.5,0.1
		L14.2,32.6z"/>
	<path class="st0" d="M14.8,27.9c-0.1,0.3-0.5,0.5-0.8,0.4c-0.3-0.1-0.5-0.5-0.4-0.8c0.1-0.3,0.5-0.5,0.8-0.4
		C14.8,27.2,14.9,27.6,14.8,27.9z"/>
</g>
<g>
	<path class="st0" d="M28.8,24.9c0.2,0,0.7-0.2,1.2-0.2c-0.2-0.3-0.9-1.3-1.1-1.5c0,0.1,0,0.4,0,0.8C28.9,24.2,28.9,24.7,28.8,24.9z
		"/>
	<path class="st0" d="M27.6,46.8c-0.1,0.1-0.2,0.2-0.2,0.3c-0.1,0.1-0.1,0.1-0.2,0.2c0.2-0.1,0.4-0.2,0.7-0.4
		c0.8-0.7,0.9-1.6,0.7-2.4c-0.1,0-0.3,0-0.4,0c0,0,0,0,0,0.1c0,0.3,0,0.7-0.1,1C28.1,46,27.9,46.4,27.6,46.8z"/>
	<path class="st0" d="M26.7,47.3c0,0-0.1,0.1-0.1,0.1c0.2,0,0.4,0,0.6-0.1c0,0,0,0,0-0.1c0.1-0.1,0.2-0.3,0.3-0.5
		c0.2-0.4,0.3-0.9,0.4-1.4c0-0.1,0.1-0.8,0-0.9c0,0-0.5,0-0.5,0c0.1,0.5,0,1.1-0.1,1.7C27.2,46.5,27,46.9,26.7,47.3z"/>
	<path class="st0" d="M23,41.8c0.4,0.8-0.1,2.6,0.3,3.4c0.2,0.5,0.8,1.2,1.9,1.8c0,0-0.1-0.2-0.3-0.3C24.2,46,24.1,45,24,44
		c-0.1-0.7-0.1-1.3-0.4-1.9c-0.2-0.5-0.5-0.9-0.9-1.3c-0.4-0.4-0.9-0.8-1-1.3c-0.3-0.8,0.1-1.8,0.7-2.5c0,0,0,0.1-0.1,0.2
		c0,0.1,0,0.1-0.1,0.2c-0.1,0.4-0.3,0.8-0.3,1.2c0,0.7,0.5,1.2,0.9,1.7c0.5,0.6,1,1.3,1.3,2c0.5,1.2,0.2,2.6,0.7,3.8
		c0.1,0.3,0.2,0.5,0.4,0.7c0.1,0.1,0.2,0.3,0.4,0.4c0.1,0,0.2,0.1,0.3,0.1c0-0.1-0.1-0.2-0.1-0.4c-0.1-0.4-0.1-0.9-0.1-1.3
		c0-0.6-0.1-1.2-0.3-1.8c-0.1-0.3-0.2-0.6-0.4-1c-0.1-0.3-0.3-0.7-0.4-1c-0.1-0.3-0.3-0.7-0.4-1c-0.1-0.3-0.3-0.6-0.4-1
		c-0.3-0.6-0.5-1.2-0.8-1.7c-0.1-0.2-0.2-0.5-0.3-0.7c-0.1-0.2-0.2-0.4-0.1-0.6c0,0,0,0,0-0.1c0,0.2,0.1,0.4,0.3,0.6
		c0.9,1.3,1.7,2.7,2.3,4.2c0.1,0.3,0.3,0.7,0.4,1c0.3,0.7,0.4,1.3,0.5,2c0,0.3,0,0.6-0.1,0.9c-0.1,0.5-0.1,1,0,1.3
		c0,0.2,0,0.3,0,0.4c0.2,0,0.4,0.1,0.5,0.1c0,0,0.1-0.1,0.1-0.2c0.3-0.5,0.4-1.1,0.4-1.7c0-0.1,0-1.1-0.1-1.1c-0.2,0-0.3,0-0.4,0
		c-0.2,0-0.3-0.2-0.4-0.4c-0.2-0.4-0.3-0.9-0.3-1.3c0-0.2,0.1-0.3,0.1-0.5c-0.1-0.3-0.3-0.7-0.4-1c-0.1-0.3-0.2-0.6-0.3-0.9
		c-0.2-0.6-0.6-1.1-1-1.6c-0.3-0.4-0.6-0.8-0.8-1c-0.2-0.2-0.3-0.4-0.3-0.4s0.1,0.1,0.4,0.3c0.8,0.7,1.6,1.5,2.1,2.4
		c0.2,0.3,0.3,0.7,0.4,1c0.1,0.2,0.1,0.3,0.2,0.5c0-0.1,0-0.3,0-0.4c0-0.5,0-1-0.2-1.5c-0.2-0.4-0.5-0.8-0.9-1.2
		c-0.7-0.7-1.9-1.2-2.3-1.4c0-0.1-0.3-0.5-0.3-0.5c-0.2,0-0.5,0.1-0.7,0.3c-0.2,0.1-0.5,0.4-0.6,0.4c-0.7,0.7-0.5,1.3-0.4,1.9
		C21,40.1,22.6,41,23,41.8z"/>
	<path class="st0" d="M26.7,41.3c0.1,0,0.4-0.1,0.4-0.1c0.2,0,0.4,0,0.5-0.1c0.4,0,0.8,0,1.1,0c0.4,0,0.7,0,1.1,0.1c0,0,0.1,0,0.1,0
		c0-0.2-0.1-0.4-0.1-0.6l0-0.3l-0.1,0.1c-0.1,0.1-0.3,0.1-0.5,0.2c-0.3,0.1-0.6,0.2-0.9,0.3c0,0-0.1,0-0.1,0c-0.3,0-0.5-0.1-0.8-0.1
		c-0.2,0-0.5,0-0.7,0c-0.1,0-0.1,0-0.2,0c0,0,0,0,0,0c0,0,0,0.1,0,0.2C26.7,41.1,26.7,41.2,26.7,41.3C26.7,41.3,26.7,41.3,26.7,41.3
		z"/>
	<path class="st0" d="M32.2,50.7c-0.4,0-0.9-0.1-1.3-0.1c-0.4,0-0.9-0.1-1.3-0.1c-0.2,0-0.5,0-0.7,0c-0.4,0-0.5,0.2-0.5,0.2l-0.2,0
		c-0.3,0-0.6,0-1,0c0,0-0.1,0-0.1,0c-0.1,0-0.2,0.1-0.2,0.2c-0.4,0.3-0.8,0.6-1.2,0.8l0.9,0c0.2-0.2,0.5-0.4,0.8-0.4
		c0,0-0.1,0.2-0.3,0.3l0.8,0l1.5,0c0.1,0,0.2,0,0.3,0c0.2-0.1,0.4-0.2,0.6-0.2c0.3-0.1,0.5-0.1,0.8-0.1c0.7,0,1.4-0.1,2.1-0.1
		c0.1,0,0.2,0,0.3,0c-0.1-0.2-0.2-0.3-0.4-0.5c-0.2-0.3-0.5-0.7-0.8-1.2c-0.3-0.4-0.5-0.9-0.8-1.4c0,0,0,0,0,0c0,0,0,0.1,0,0.1
		c-0.1,0.2-0.1,0.5-0.1,0.7c0,0.2,0,0.5,0.1,0.7c0,0.2,0.1,0.4,0.2,0.6c0,0,0,0.1,0,0.1c0.3,0.1,0.5,0.1,0.7,0.4
		C32.3,50.7,32.2,50.7,32.2,50.7z"/>
	<path class="st0" d="M29.7,30.1c-1.4,0.5-1.3,2-1.3,2.2c0.1,0,0.1,0,0.2,0c0-0.3,0-0.4,0-0.6c0.1-0.5,0.2-0.8,0.4-1
		c0.2-0.2,0.5-0.3,0.8-0.2l0,0c0,0,0,0,0,0.1c0,0.1,0,0.2,0.1,0.3C29.9,31,30,31,30.1,31c0.1,0,0.2-0.1,0.3-0.2l0,0l0,0
		c0.3,0.3,0.4,0.5,0.4,0.9c0,0,0.4-0.3,0.4-1.2c-0.1-0.1-0.3-0.2-0.4-0.3C30.4,30.1,30.1,30,29.7,30.1z"/>
	<ellipse transform="matrix(0.1597 -0.9872 0.9872 0.1597 -5.4393 56.2455)" class="st0" cx="30.3" cy="31.3" rx="0.2" ry="0.2"/>
	<path class="st0" d="M30.3,36.2C30.3,36.2,30.3,36.3,30.3,36.2C30.3,36.3,30.3,36.3,30.3,36.2z"/>
	<path class="st0" d="M44.6,52.4c0,0.1,0,0.2,0,0.3c0,0,0,0,0,0c6.4-0.3,7.8-0.2,7.8-0.2c-2.7-0.3-5.3-0.5-7.5-0.7
		C44.7,52,44.7,52.2,44.6,52.4z"/>
	<path class="st0" d="M24.9,52.1c-0.6,0,0.2-0.5,0.2-0.5c-0.7,0.1-1.5,0.2-2.2,0.3c-0.4,0.1-0.7,0.1-1.1,0.2c-0.1,0,0.3,0.1,0.3,0.1
		c1.4,0.3,2.8,0.5,4.2,0.6c0.5,0.1,1.5,0.2,1.5,0.2c-0.2-0.3,0-0.6,0.1-0.6c0.1-0.1,0.8-0.3,0.8-0.3S25.4,52.1,24.9,52.1z"/>
	<path class="st0" d="M56,24.9c-2.3-4.7-4.7-4.6-4.8-4.6l1.6-0.1c-0.4-0.2-0.9-0.4-1.4-0.6c-1.4-0.5-3-0.9-4.8-0.7
		c-3.1,0.3-3.6,1.6-3.6,1.6l0.4-1c0,0,0,0-1.2,0.5c-3.5,1.4-2.9,4.5-2.9,4.5L39,23.7c-0.1,0.2-0.2,0.4-0.3,0.6c-0.9,2.2,0,4.5,0,4.6
		c0-0.1-0.5-1-0.5-1c-0.6,1,1,3.2,1,3.2l-0.7-0.7c0,0.4,0,1,0.2,1.5c0.4,0.1,0.8,0.2,1.2,0.4c0.6,0.2,1.2,0.4,1.7,0.6
		c-0.3-0.8-0.9-2.3-0.8-3.8c0,0,0.5,1.8,1.2,3.3c-0.1-0.6-0.2-1.2-0.1-1.9c0.2,0.6,0.5,1.3,0.8,1.9c0.3,0.5,0.5,1.1,0.9,1.6
		c0.4,0.5,0.8,0.9,1.3,1.4c1.3,1.4,2,3.2,2.3,5c0.2,1,0.2,1.9,0.1,2.9c0,0.2,0,0.2,0,0.2s0-0.3-0.1-0.9c-0.3-1.8-0.8-3.6-1.7-5.2
		c-0.9-1.5-2.3-2.8-3.9-3.6c-0.4-0.2-0.8-0.4-1.1-0.5c-0.8-0.3-1.7-0.6-2.6-0.8c-0.3-0.1-0.5-0.1-0.8-0.2l0.7-0.2
		c-0.2-0.2-0.4-0.3-0.5-0.5c-0.2-0.2-0.3-0.5-0.4-0.7c-0.2-0.5-0.3-0.9-0.4-1.3c-0.1-0.4-0.3-0.7-0.4-0.9c-0.2-0.2-0.3-0.4-0.5-0.4
		c0,0-0.1,0-0.1-0.1l-0.2,0l0-0.1c0.3-0.9,0-1.9-0.5-2.6c-0.3-0.4-0.6-0.7-0.8-1.2c-0.1-0.2-0.2-0.5-0.2-0.7c0-0.2-0.1-0.4-0.1-0.6
		c-0.1,0-0.2,0.1-0.2,0.1c-0.3,0.2-0.7,0.5-1,0.8c-0.4,0.4-0.7,0.9-0.8,1.5l0,0.1c0,0-1-0.2-1.5-0.3c-0.5-0.1-0.9-0.1-1.4,0
		c-0.4,0.1-0.8,0.3-1.2,0.6c-0.3,0.3-0.6,0.7-0.9,1c-0.5,0.7-1,1.5-1.3,2.4c-0.2,0.4-0.3,0.9-0.4,1.3c-0.1,0.4-0.3,0.9-0.5,1.3
		l-0.5,1.3c-0.2,0.4-0.4,0.7-0.4,1.2c0,0.1,0,0.4,0.3,0.8c0.1,0.1,0.2,0,0.3-0.1c0.1-0.1,0.2-0.2,0.3-0.3c0.1-0.1,0.2-0.2,0.3-0.3
		c0,0,0.2-0.2,0.4-0.2c0.1,0,0.1,0,0.1,0c-0.2,0.1-0.4,0.3-0.4,0.4c-0.1,0.1-0.1,0.2-0.1,0.4c0,0.1,0,0.2-0.1,0.3
		c0,0.1-0.1,0.1-0.1,0.1c-0.1,0-0.2,0-0.2,0c0.5,0.3,1.2,0.5,2.3,0.6c0.1,0,0.2,0,0.2,0c0.4-0.1,1.1-0.4,1.8-0.8l-0.6,0.8
		c0,0,1.1-0.1,1.6-0.1c0.3,0,0.7-0.1,1-0.1c0.2,0,0.5-0.1,0.7-0.2c0,0-0.7,0.3-1.2,0.4c0.2,0,0.8-0.2,1.5-0.4c0,0-0.6,0.6-1.4,0.9
		c-0.1,0-0.2,0.1-0.3,0.1c0.1,0.5,0.2,1.1,0.2,1.6c0.1,0.6,0.1,1.3,0.2,2c0,0.2,0,0.4,0,0.7c0.1,0,0.1-0.1,0.2-0.1
		c0.5-0.4,1-0.7,1.5-1.1c0.5-0.4,0.9-0.7,1.2-1c0.1-0.4,0.3-0.8,0.3-1c-0.2,0.2-0.8,0.4-0.8,0.4c0.5-0.2,0.7-0.9,0.7-0.9
		c-0.4,0.1-0.8-0.2-0.8-0.2c0.4-0.2,0.7-0.5,0.9-0.8c0.1-0.4,0.1-1,0.1-1c0.5,0.6-0.1,1.7-0.1,1.7c0.3-0.1,0.4-0.2,0.4-0.2
		c-0.1,0.6-0.3,0.7-0.3,0.7l0.3,0c-0.3,0.7-0.2,1.1-0.2,1.1c0.2-0.2,0.3-0.3,0.5-0.4c0.2-0.2,0.4-0.3,0.6-0.5
		c0.2-0.1,0.3-0.3,0.5-0.4c-0.2,0.3-0.2,0.3-0.4,0.4c-0.1,0.1-0.3,0.3-0.4,0.4c-0.3,0.3-0.6,0.5-0.9,0.8c-0.1,0.1-0.1,0.1-0.2,0.2
		c-0.1,0.1-0.2,0.2-0.4,0.3c-0.3,0.2-0.6,0.5-0.9,0.8c-0.3,0.3-0.6,0.6-1,0.8c-0.3,0.2-0.6,0.6-1,0.7c-0.2,0.1-0.3,0.1-0.5,0.1
		c-0.1,0-0.3,0-0.4,0c-0.6,0-1.2,0-1.8,0c-0.1,0-0.2,0-0.4,0c-0.2,0-0.3,0.1-0.4,0.1c0,0-0.1,0.1-0.1,0.2c0.2,0,0.5-0.1,0.7,0
		c0.1,0,0.1,0,0.1,0.1c0,0,0.1,0.1,0.1,0.1c0,0.2-0.2,0.3-0.5,0.3c-0.1,0-0.3,0-0.5,0c0,0.1-0.1,0.3-0.1,0.4c0.2,0,0.6,0,0.7-0.1
		c0.2,0,0.2,0.1,0.3,0.1c0,0,0,0.1,0,0.2c-0.1,0.1-0.6,0.1-0.9,0.2c0,0.1,0.1,0.2,0.1,0.2c0.1,0.1,0.3,0,0.5,0c0.1,0,0.3,0,0.4,0
		c1.1,0,2.2,0,3.3-0.1c1.3-0.1,2.6-0.3,3.9-0.8c0.6-0.2,1.1-0.6,1.6-1c0.5-0.5,0.9-1,1.1-1.7c0,0,0,0.2,0,0.6c0,0.2-0.1,0.5-0.3,0.8
		c-0.2,0.3-0.4,0.7-0.7,1.1c-1.3,1.4-3.3,1.9-5.1,2.1c-0.1,0-0.2,0-0.3,0c-0.1,0-0.3,0-0.4,0c0.1,0.6,0.3,1.1,0.5,1.7
		c0.2,0.6,0.4,1.1,0.7,1.7c0.2,0.5,0.5,1,0.7,1.5c0.1,0.3,0.3,0.6,0.4,0.8c0-0.3-0.1-0.6-0.1-0.6c0.2,0.4,0.5,0.7,0.8,0.9
		c0.5,0.3,0.9,0.5,0.9,0.5c-0.7-0.5-1-1.6-1-1.6c0.5,1.1,2.2,1.2,2.2,1.2L35,49.6c0.4,0.3,1.1,0.4,1.5,0.5c0-0.1,0-0.2,0-0.3
		c0-0.3,0-0.6,0.1-0.9c0.1-0.6,0.4-1.2,0.8-1.7c0.2-0.2,0.4-0.4,0.6-0.6c0,0,0.1-0.1,0.1-0.1c-0.1-0.3-0.3-0.6-0.8-1.1l-1-0.9
		l0.9,0.3c0,0-1.2-1.3-1.2-1.4c0,0,0.5,0.1,1,0.5c0.2,0.2,0.4,0.3,0.6,0.5l-0.9-0.5c0,0,0.4,0.4,0.7,0.6c0.3,0.3,0.6,0.8,0.8,1.2
		l-0.8-0.5c0,0,0.5,0.5,0.7,1.3c0.2-0.1,0.4-0.3,0.6-0.3c0,0,1.3-0.6,2.6-0.5c0,0,0,0,0,0.1c0,0,0,0,0,0c-0.5,0-0.9,0.2-1.3,0.4
		c-0.6,0.3-1.1,0.6-1.5,1.1c-0.3,0.3-0.5,0.6-0.7,0.9c-0.3,0.6-0.5,1.2-0.6,1.9c0,0.2-0.1,0.4-0.1,0.6c0,0,0,0,0.1,0
		c0.3-0.2,0.6-0.3,0.9-0.4c0.2-0.1,0.4-0.1,0.5-0.2c-0.4,0-0.8,0-1.1,0.2c0.2-0.1,0.4-0.2,0.6-0.3c0.4-0.1,0.8-0.2,1.1-0.1
		c0.2,0,0.4,0.1,0.6,0.2c0.1,0,0.4,0.1,0.3,0.3c0,0.1-0.1,0.1-0.2,0.1c-0.6-0.2-1.2-0.1-1.7,0.1c-0.3,0.1-0.5,0.2-0.8,0.4
		c-0.1,0.1-0.2,0.1-0.3,0.2c0,0,0,0.1,0,0.1c0.4,0,0.8,0,1.2,0c0.5,0,1,0.1,1.5,0.3c0.1,0,0.2,0.1,0.3,0.2l-3.4-0.2
		c-0.4,0-0.8,0.1-1.2,0.1c-0.4,0-0.8,0.1-1.2,0.1c-0.8,0.1-1.6,0.1-2.4,0.1c-0.3,0-0.7-0.1-0.9,0.2c0,0-0.2,0-0.2,0
		c-0.3,0-0.5,0.1-0.8,0.2c-0.4,0.2-0.8,0.3-1.1,0.5c0,0-0.6,0.3-0.6,0.3c0.1,0.1,0.2,0.2,0.5,0.2l1.1-0.6L28.9,53c0.2,0,0.5,0,0.7,0
		c0.2-0.2,0.6-0.5,1-0.5c0,0-0.2,0.3-0.4,0.5l0.5,0l0.1,0c0.1-0.2,0.2-0.5,0.3-0.5c0.1,0,0,0.3,0,0.5c1,0,2.7,0.1,5.1,0
		c0.8,0,1.7-0.1,2.5-0.1c1.1-0.1,2.1-0.1,3.2-0.2c0.7,0,1.4-0.1,2.1-0.1c0.1,0,0.2,0,0.3,0c0,0,0-0.1,0.1-0.4
		c0.2-0.7,0.4-1.3,0.6-1.9c0.2-0.7,0.4-1.4,0.6-2.1c0,0,0,0,0,0c0,0,0,0,0,0c-0.1,0.3-0.1,0.7-0.2,1c0,0.1-0.1,0.7-0.1,0.7
		c1.7,0.4,3.3-0.6,4.7-0.9c0,0-1.2-0.4-1.4-0.5c0,0,2.1,0,2.2-0.1c1.3-1.2,2.2-2.8,2.4-4.6c0.2-1.2,0-2.5,0.1-3.7
		c-0.1,0.2-1.2,1.4-1.2,1.4l1-2.6c-0.3-3.7-2.6-2.8-2.1-7.2l-0.4,0.4c-0.2-0.6-0.3-1.1-0.3-1.6c-0.5,0.7-0.8,0.9-1,1
		c-0.2,0.1-0.5,0.1-0.5,0.1l0.3-0.4c0,0,1.7-2.2,2.4-4.2l-0.6,0.2C51.2,23.7,56,24.9,56,24.9z M27.5,27.6c-0.2,0.3-0.4,0.6-0.6,0.9
		c-0.2,0.3-0.3,0.6-0.5,0.9c-0.2,0.3-0.3,0.6-0.4,0.9c-0.1,0.2-0.2,0.5-0.3,0.7c-0.1,0.1-0.1,0.3-0.2,0.4c0,0,0,0.1,0,0.1
		c0,0,0,0,0,0.1c0,0,0,0,0,0c0,0,0,0,0,0c0-0.1,0-0.1,0.1-0.2c0-0.1,0.1-0.2,0.1-0.3c0.1-0.3,0.2-0.7,0.4-1c0.8-2,2.2-3.1,2.2-3.1
		C27.9,27.1,27.7,27.3,27.5,27.6z M31.4,30.5c0,0.3-0.1,0.6-0.2,0.8c-0.1,0.1-0.1,0.3-0.2,0.4c-0.1,0.1-0.2,0.2-0.3,0.3
		c-0.2,0.1-0.3,0.2-0.5,0.3c-0.2,0.1-0.5,0.2-0.8,0.2c-0.4,0.1-0.8,0-1.2-0.1l-0.1,0l0-0.1c0-0.2,0-0.4,0.1-0.6c0-0.1,0-0.2,0.1-0.3
		c0.2-0.6,0.5-1.1,1-1.5c0.5-0.3,1.1-0.3,1.6,0C31.1,30.1,31.3,30.2,31.4,30.5L31.4,30.5z M32.6,26.1c0-0.2,0.2-1.2,0.2-1.2
		s0.1,0.9,0.1,0.7c0-0.2,0.1-1,0.1-1s0.3,1.2,0.3,1c0,0,0-0.8,0-1.1c0.1,0.5,0.4,1,0.8,1.4c0.4,0.4,0.7,0.9,0.7,1.5
		c0,0.1,0,0.2,0,0.3c0,0-0.8-0.7-1.4-1.1C32.8,26.2,32.6,26.1,32.6,26.1z M34.7,32.8C34.2,34,34.2,34,34.2,34s0.1-0.3,0.1-0.7
		c0,0.1-0.1,0.2-0.1,0.2c-0.6,1-0.6,1-0.6,1s1.1-2-0.4-3.5c0,0,1,0.7,1.2,1.5c-0.1-0.8-0.3-1.6-1.1-2.3
		C33.2,30.2,35.3,31.2,34.7,32.8z M32.7,42.5c-0.8-0.8-2-0.6-2-0.6s0.1-0.2,0.4-0.2l-0.1,0c0,0,0.3-0.8,2.3-0.4c0,0-1.5,0-1.8,0.4
		C32.4,41.8,32.7,42.5,32.7,42.5z M44.6,48.6c0.1-0.1,0.1-0.2,0.2-0.4c0,0,0,0.1,0,0.3c-0.1,0.7-0.6,2.4-2.4,2.8
		C42.3,51.3,43.8,50.3,44.6,48.6z M45.2,48.4c-0.1,0.6-0.5,2.4-1.3,3.4c-0.2,0.2-0.3,0.3-0.5,0.5c0,0,0.1-0.2,0.3-0.5
		C44,51,44.8,49.6,45.2,48.4c0-0.1,0-0.1,0-0.2C45.2,48.2,45.2,48.3,45.2,48.4z M47.6,45.3c0.1,0.2,0.1,0.4,0.1,0.7
		c0,0.4-0.3,1-0.6,1.2c-0.2,0.1-0.3,0.1-0.4,0.1c0.2,0,0.4-0.6,0.5-0.9c0-0.2,0.1-0.4,0-0.6c-0.1-0.4-0.4-0.8-0.8-1.1
		c-0.5-0.4-1-0.7-1.5-1c-0.3-0.2-0.6-0.4-0.9-0.6l2.5,0.9c0.1,0,0.3,0.1,0.4,0.1c0,0-0.9-0.8-2-1.5c-0.1-0.1-0.2-0.1-0.3-0.2
		c-0.1,0-0.2-0.1-0.2-0.1c0.9,0.2,1.8,0.5,2.5,1.1c0.4,0.3,0.7,0.7,0.9,1.1l0.3,0.6l-0.6-0.2l-0.1,0C47.5,45.1,47.6,45.2,47.6,45.3z
		 M48.5,30.7c0,0-0.6,0.8-0.7,1.2l-0.2,0.7c0-0.2,0-0.4,0-0.6c0-0.4,0.1-0.9,0.4-1.2c0.2-0.2,0.5-0.4,0.8-0.5L48.5,30.7z"/>
</g>
</svg>
